<svg width="188" height="113" viewBox="0 0 188 113" fill="none" xmlns="http://www.w3.org/2000/svg">
<path d="M64.8191 112.547H51.4548C50.2832 112.547 49.2887 112.135 48.4713 111.312C47.6812 110.488 47.2861 109.5 47.2861 108.347C47.2861 106.893 47.8855 105.753 49.0843 104.93C54.9696 100.813 58.28 98.3284 59.0156 97.4775C59.4788 96.9834 59.7104 96.4344 59.7104 95.8305C59.7104 95.1717 59.4788 94.6227 59.0156 94.1835C58.5525 93.7169 57.9939 93.4836 57.34 93.4836C56.3319 93.4836 55.5554 94.2659 55.0104 95.8305C54.6562 96.9285 54.2612 97.697 53.8252 98.1362C53.253 98.7127 52.4084 99.0009 51.2913 99.0009C50.1197 99.0009 49.0571 98.5891 48.1035 97.7657C47.1771 96.9422 46.7139 95.954 46.7139 94.8012C46.7139 91.919 47.7357 89.5858 49.7791 87.8016C51.8226 86.0174 54.3429 85.1253 57.34 85.1253C60.2826 85.1253 62.7893 86.1684 64.86 88.2545C66.958 90.3407 68.007 92.866 68.007 95.8305C68.007 98.4382 67.1215 100.799 65.3504 102.912C65.2687 102.995 65.0235 103.242 64.6148 103.654C64.2878 103.928 64.3559 104.106 64.8191 104.189C65.9635 104.189 66.9307 104.601 67.7209 105.424C68.5383 106.22 68.947 107.194 68.947 108.347C68.947 109.5 68.5383 110.488 67.7209 111.312C66.9307 112.135 65.9635 112.547 64.8191 112.547Z" fill="#B4E900"/>
<path d="M81.9371 85.1253C85.3701 85.1253 88.0948 86.3056 90.111 88.6662C92.1545 91.1367 93.1762 94.5953 93.1762 99.0421C93.1762 103.406 92.1545 106.824 90.111 109.294C88.0675 111.765 85.3429 113 81.9371 113C78.4223 113 75.6704 111.833 73.6814 109.5C71.6925 107.14 70.698 103.654 70.698 99.0421C70.698 94.6502 71.7333 91.219 73.804 88.7486C75.793 86.3331 78.504 85.1253 81.9371 85.1253ZM81.9371 104.024C83.6536 104.024 84.5119 102.363 84.5119 99.0421C84.5119 95.7207 83.6536 94.06 81.9371 94.06C80.2206 94.06 79.3623 95.7207 79.3623 99.0421C79.3623 102.363 80.2206 104.024 81.9371 104.024Z" fill="#B4E900"/>
<path d="M113.032 112.547H99.6681C98.4965 112.547 97.502 112.135 96.6846 111.312C95.8945 110.488 95.4994 109.5 95.4994 108.347C95.4994 106.893 96.0988 105.753 97.2977 104.93C103.183 100.813 106.493 98.3284 107.229 97.4775C107.692 96.9834 107.924 96.4344 107.924 95.8305C107.924 95.1717 107.692 94.6227 107.229 94.1835C106.766 93.7169 106.207 93.4836 105.553 93.4836C104.545 93.4836 103.769 94.2659 103.224 95.8305C102.87 96.9285 102.474 97.697 102.039 98.1362C101.466 98.7127 100.622 99.0009 99.5046 99.0009C98.333 99.0009 97.2704 98.5891 96.3168 97.7657C95.3904 96.9422 94.9272 95.954 94.9272 94.8012C94.9272 91.919 95.949 89.5858 97.9924 87.8016C100.036 86.0174 102.556 85.1253 105.553 85.1253C108.496 85.1253 111.003 86.1684 113.073 88.2545C115.171 90.3407 116.22 92.866 116.22 95.8305C116.22 98.4382 115.335 100.799 113.564 102.912C113.482 102.995 113.237 103.242 112.828 103.654C112.501 103.928 112.569 104.106 113.032 104.189C114.177 104.189 115.144 104.601 115.934 105.424C116.752 106.22 117.16 107.194 117.16 108.347C117.16 109.5 116.752 110.488 115.934 111.312C115.144 112.135 114.177 112.547 113.032 112.547Z" fill="#B4E900"/>
<path d="M128.965 93.813C128.72 93.813 128.597 93.9502 128.597 94.2247C128.597 94.4992 128.72 94.6365 128.965 94.6365C129.02 94.6365 129.238 94.6227 129.619 94.5953C132.752 94.3757 135.368 95.0345 137.466 96.5716C139.591 98.0813 140.654 100.181 140.654 102.871C140.654 105.589 139.578 107.894 137.425 109.788C135.273 111.682 132.671 112.575 129.619 112.465C127.821 112.382 126.077 112.094 124.388 111.6C122.508 111.051 121.268 110.379 120.669 109.583C119.988 108.677 119.647 107.689 119.647 106.618C119.647 105.246 120.137 104.189 121.118 103.448C121.636 103.063 122.303 102.871 123.121 102.871C123.856 102.871 124.96 103.118 126.431 103.612C128.012 104.106 129.21 104.381 130.028 104.436C131.526 104.546 132.276 104.038 132.276 102.912C132.276 101.814 131.499 101.265 129.946 101.265C129.646 101.265 129.129 101.334 128.393 101.471C126.731 101.801 125.069 101.801 123.407 101.471C122.426 101.279 121.581 100.799 120.873 100.03C120.192 99.2342 119.851 98.3421 119.851 97.3539L119.81 89.7368C119.81 88.5565 120.219 87.5683 121.036 86.7723C121.854 85.9488 122.835 85.537 123.979 85.537H136.526C137.67 85.537 138.638 85.935 139.428 86.7311C140.218 87.5271 140.613 88.5016 140.613 89.6544C140.613 90.8073 140.218 91.7955 139.428 92.6189C138.638 93.415 137.67 93.813 136.526 93.813H128.965Z" fill="#B4E900"/>
<path d="M27.4159 31.4147C26.7843 31.3812 26.2026 31.264 25.6707 31.063C24.3411 30.6277 23.3605 29.8406 22.7289 28.702C22.4297 28.3001 22.1305 28.0992 21.8314 28.0992C21.5322 28.0992 21.3826 28.3001 21.3826 28.702V32.8213C21.3826 34.4288 20.8009 35.8186 19.6375 36.9908C18.5073 38.1294 17.1278 38.6987 15.499 38.6987C13.9034 38.6987 12.5239 38.1294 11.3604 36.9908C10.2302 35.8186 9.66514 34.4288 9.66514 32.8213V11.4714C9.66514 10.2323 10.0142 9.11036 10.7122 8.10567C11.4435 7.06748 12.3743 6.34744 13.5045 5.94556C14.1361 5.71113 14.8009 5.59392 15.499 5.59392C17.294 5.59392 18.7898 6.29721 19.9865 7.70379C20.6181 8.40708 20.9837 8.77546 21.0834 8.80895L26.4685 14.7367C26.7344 14.9376 27.0502 15.0381 27.4159 15.0381C27.8148 15.0381 28.1472 14.9376 28.4131 14.7367L33.7982 8.80895C33.8314 8.84244 34.1804 8.47405 34.8452 7.70379C36.0752 6.29721 37.5876 5.59392 39.3827 5.59392C40.0475 5.59392 40.7123 5.71113 41.3771 5.94556C42.5073 6.34744 43.4214 7.06748 44.1195 8.10567C44.8508 9.11036 45.2165 10.2323 45.2165 11.4714V32.8213C45.2165 34.4288 44.6347 35.8186 43.4713 36.9908C42.3411 38.1294 40.9616 38.6987 39.3328 38.6987C37.7372 38.6987 36.3577 38.1294 35.1943 36.9908C34.0641 35.8186 33.499 34.4288 33.499 32.8213V28.702C33.499 28.3001 33.3494 28.0992 33.0502 28.0992C32.7511 28.0992 32.4353 28.3001 32.1029 28.702C31.2054 30.3765 29.643 31.2807 27.4159 31.4147Z" fill="#B4E900"/>
<path d="M52.3408 11.4428C50.9447 11.4428 49.748 10.9572 48.7508 9.98595C47.7868 8.98126 47.3048 7.77562 47.3048 6.36904C47.3048 4.96246 47.7868 3.77357 48.7508 2.80236C49.748 1.79766 50.9447 1.29531 52.3408 1.29531C53.7369 1.29531 54.9336 1.79766 55.9309 2.80236C56.9281 3.77357 57.4267 4.96246 57.4267 6.36904C57.4267 7.77562 56.9281 8.98126 55.9309 9.98595C54.9336 10.9572 53.7369 11.4428 52.3408 11.4428ZM52.3907 12.4475C53.7868 12.4475 54.9669 12.9498 55.9309 13.9545C56.9281 14.9592 57.4267 16.1649 57.4267 17.5714V29.9795C57.4267 31.386 56.9281 32.5917 55.9309 33.5964C54.9669 34.5676 53.7868 35.0532 52.3907 35.0532C50.9946 35.0532 49.7979 34.5676 48.8006 33.5964C47.8034 32.5917 47.3048 31.386 47.3048 29.9795V17.5714C47.3048 16.1649 47.8034 14.9592 48.8006 13.9545C49.7979 12.9498 50.9946 12.4475 52.3907 12.4475Z" fill="#B4E900"/>
<path d="M68.6039 17.1301C69.4017 17.3311 70.3989 17.5487 71.5956 17.7832C73.59 18.1181 75.1524 18.6539 76.2826 19.3907C78.41 20.7973 79.4737 22.9071 79.4737 25.7203C79.4737 27.9976 78.7258 29.8563 77.2299 31.2964C75.5014 32.9709 73.0914 33.8081 70 33.8081C67.7396 33.8081 65.2133 33.49 62.421 32.8536C61.5235 32.6527 60.7922 32.2006 60.2271 31.4973C59.6953 30.794 59.4294 30.007 59.4294 29.1363C59.4294 28.0646 59.795 27.1604 60.5263 26.4236C61.2908 25.6533 62.1884 25.2682 63.2188 25.2682C63.518 25.2682 63.8005 25.3017 64.0665 25.3686C65.0305 25.5696 66.8754 25.8208 69.6011 26.1222C69.9668 26.1222 70.3657 26.1054 70.7978 26.0719C70.964 26.0719 71.0471 25.9715 71.0471 25.7705C71.0803 25.6031 70.9806 25.4859 70.7479 25.4189C69.6177 25.2179 68.5706 25.0003 67.6067 24.7658C66.5097 24.5314 65.7285 24.3305 65.2632 24.163C64.3324 23.8951 63.5512 23.5434 62.9197 23.1081C60.7922 21.7015 59.7119 19.5916 59.6787 16.7785C59.6787 14.5346 60.4432 12.6759 61.9723 11.2024C63.8338 9.39393 66.4765 8.57343 69.9003 8.74088C72.1939 8.84135 74.4876 9.14276 76.7812 9.64511C77.6455 9.84605 78.3601 10.2982 78.9252 11.0015C79.4903 11.7047 79.7729 12.5085 79.7729 13.4127C79.7729 14.4509 79.3906 15.3551 78.6261 16.1254C77.8948 16.8622 76.9972 17.2306 75.9335 17.2306C75.6676 17.2306 75.4017 17.1971 75.1358 17.1301C74.1718 16.9292 72.3103 16.6947 69.5513 16.4268C69.2188 16.3933 68.903 16.3933 68.6039 16.4268C68.338 16.4603 68.205 16.5608 68.205 16.7282C68.2382 16.9292 68.3712 17.0631 68.6039 17.1301Z" fill="#B4E900"/>
<path d="M90.6618 17.1301C91.4596 17.3311 92.4568 17.5487 93.6535 17.7832C95.6479 18.1181 97.2103 18.6539 98.3405 19.3907C100.468 20.7973 101.532 22.9071 101.532 25.7203C101.532 27.9976 100.784 29.8563 99.2879 31.2964C97.5593 32.9709 95.1493 33.8081 92.0579 33.8081C89.7975 33.8081 87.2712 33.49 84.479 32.8536C83.5814 32.6527 82.8501 32.2006 82.285 31.4973C81.7532 30.794 81.4873 30.007 81.4873 29.1363C81.4873 28.0646 81.8529 27.1604 82.5842 26.4236C83.3488 25.6533 84.2463 25.2682 85.2767 25.2682C85.5759 25.2682 85.8585 25.3017 86.1244 25.3686C87.0884 25.5696 88.9333 25.8208 91.659 26.1222C92.0247 26.1222 92.4236 26.1054 92.8557 26.0719C93.0219 26.0719 93.105 25.9715 93.105 25.7705C93.1383 25.6031 93.0385 25.4859 92.8058 25.4189C91.6756 25.2179 90.6285 25.0003 89.6646 24.7658C88.5676 24.5314 87.7864 24.3305 87.3211 24.163C86.3903 23.8951 85.6092 23.5434 84.9776 23.1081C82.8501 21.7015 81.7698 19.5916 81.7366 16.7785C81.7366 14.5346 82.5011 12.6759 84.0302 11.2024C85.8917 9.39393 88.5344 8.57343 91.9582 8.74088C94.2518 8.84135 96.5455 9.14276 98.8391 9.64511C99.7034 9.84605 100.418 10.2982 100.983 11.0015C101.548 11.7047 101.831 12.5085 101.831 13.4127C101.831 14.4509 101.449 15.3551 100.684 16.1254C99.9527 16.8622 99.0552 17.2306 97.9914 17.2306C97.7255 17.2306 97.4596 17.1971 97.1937 17.1301C96.2297 16.9292 94.3682 16.6947 91.6092 16.4268C91.2768 16.3933 90.961 16.3933 90.6618 16.4268C90.3959 16.4603 90.2629 16.5608 90.2629 16.7282C90.2961 16.9292 90.4291 17.0631 90.6618 17.1301Z" fill="#B4E900"/>
<path d="M122.941 21.2494C123.041 21.3164 124.221 22.4718 126.481 24.7156C127.512 25.7203 128.027 26.9427 128.027 28.3827C128.027 29.7223 127.545 30.9112 126.581 31.9494C125.617 32.9541 124.421 33.4565 122.991 33.4565C121.628 33.4565 120.448 32.9709 119.451 31.9997L114.465 27.1269C114.332 27.0264 114.199 26.9762 114.066 26.9762C113.8 26.9762 113.667 27.4785 113.667 28.4832C113.667 29.8898 113.168 31.0954 112.171 32.1001C111.174 33.0713 109.977 33.5569 108.581 33.5569C107.185 33.5569 105.988 33.0713 104.991 32.1001C104.027 31.0954 103.545 29.8898 103.545 28.4832V5.07373C103.545 3.66715 104.027 2.47826 104.991 1.50705C105.988 0.50235 107.185 0 108.581 0C109.977 0 111.174 0.50235 112.171 1.50705C113.168 2.47826 113.667 3.66715 113.667 5.07373V12.9104C113.667 13.2453 113.783 13.463 114.016 13.5634C114.216 13.6639 114.432 13.6304 114.664 13.463C114.797 13.396 116.792 12.0731 120.648 9.4944C121.512 8.95856 122.443 8.69064 123.44 8.69064C125.268 8.69064 126.681 9.44417 127.678 10.9512C128.21 11.822 128.476 12.7597 128.476 13.7644C128.476 15.6063 127.728 17.0296 126.232 18.0343L123.091 20.0437V20.094L122.991 20.1442C122.526 20.4456 122.509 20.814 122.941 21.2494Z" fill="#B4E900"/>
<path d="M142.403 33.8081C138.946 33.8081 135.988 32.5857 133.528 30.141C131.101 27.6627 129.888 24.6821 129.888 21.1991C129.888 17.7497 131.101 14.8026 133.528 12.3578C135.988 9.87954 138.946 8.64041 142.403 8.64041C145.827 8.64041 148.703 9.79581 151.029 12.1066C151.794 12.8769 152.176 13.8146 152.176 14.9198C152.176 16.0249 151.794 16.9627 151.029 17.7329L145.245 23.5099C144.414 24.3472 143.583 24.7658 142.752 24.7658C141.556 24.7658 140.625 24.4309 139.96 23.7611C139.295 23.0913 138.963 22.2038 138.963 21.0987C138.963 20.027 139.345 19.106 140.11 18.3358L141.107 17.2808C141.24 17.1803 141.273 17.0799 141.207 16.9794C141.107 16.9124 140.974 16.8957 140.808 16.9292C140.143 17.0966 139.578 17.4315 139.112 17.9339C138.182 18.8381 137.716 19.9265 137.716 21.1991C137.716 22.5052 138.165 23.6272 139.063 24.5649C139.993 25.4691 141.107 25.9212 142.403 25.9212C143.666 25.9212 144.747 25.4524 145.644 24.5146C146.409 23.7444 147.34 23.3592 148.437 23.3592C149.534 23.3592 150.464 23.7444 151.229 24.5146C151.993 25.2849 152.376 26.2226 152.376 27.3278C152.376 28.433 151.993 29.3707 151.229 30.141C148.769 32.5857 145.827 33.8081 142.403 33.8081Z" fill="#B4E900"/>
<path d="M178.569 15.763V22.7456C178.569 23.2145 178.536 23.7168 178.47 24.2527V33.4457C178.47 37.1965 177.339 40.1939 175.079 42.4377C172.852 44.6815 169.844 45.8035 166.054 45.8035C163.86 45.8035 161.882 45.3848 160.121 44.5476C158.359 43.7438 157.478 42.354 157.478 40.3781C157.478 39.7083 157.627 39.072 157.927 38.4692C158.724 36.6607 160.104 35.7565 162.065 35.7565C162.531 35.7565 163.179 35.8904 164.01 36.1584C164.841 36.4263 165.522 36.5602 166.054 36.5602C167.45 36.5602 168.364 36.2588 168.796 35.656C168.963 35.4216 168.996 35.2374 168.896 35.1034C168.763 34.9025 168.531 34.8355 168.198 34.9025C167.633 35.003 167.018 35.0532 166.353 35.0532C162.996 35.0532 160.121 33.8475 157.727 31.4363C155.334 29.025 154.137 26.1281 154.137 22.7456V15.763C154.137 14.3564 154.619 13.1675 155.583 12.1963C156.58 11.1916 157.777 10.6892 159.173 10.6892C160.569 10.6892 161.766 11.1916 162.763 12.1963C163.76 13.1675 164.259 14.3564 164.259 15.763V22.7456C164.259 23.315 164.459 23.8173 164.857 24.2527C165.29 24.6546 165.788 24.8555 166.353 24.8555C166.952 24.8555 167.45 24.6546 167.849 24.2527C168.248 23.8173 168.447 23.315 168.447 22.7456V15.763C168.447 14.3564 168.946 13.1675 169.943 12.1963C170.941 11.1916 172.137 10.6892 173.533 10.6892C174.929 10.6892 176.109 11.1916 177.073 12.1963C178.071 13.1675 178.569 14.3564 178.569 15.763Z" fill="#B4E900"/>
<path d="M19.9446 69.927C19.5457 69.927 19.2133 70.1447 18.9474 70.5801L17.7009 72.5392C15.6067 75.8882 13.1801 77.3953 10.4211 77.0604C8.39337 76.826 6.79779 75.771 5.63435 73.8956C4.96953 72.8574 4.52079 71.7857 4.2881 70.6805L0.149585 51.3401C0.049862 50.9382 0 50.5196 0 50.0842C0 48.4767 0.56511 47.1036 1.69531 45.965C2.8255 44.7928 4.18836 44.2067 5.78393 44.2067C7.11358 44.2067 8.29364 44.6421 9.32411 45.5129C10.3878 46.3501 11.0693 47.4553 11.3685 48.8284L12.7147 54.8565C12.9142 55.7943 13.2798 56.2631 13.8117 56.2631C14.0776 56.2631 14.2937 56.1459 14.4599 55.9115L15.4072 54.3542C16.5707 52.5122 18.0831 51.5913 19.9446 51.5913C21.8061 51.5913 23.302 52.5122 24.4322 54.3542L25.4294 55.9115C25.5956 56.1459 25.7951 56.2631 26.0277 56.2631C26.5928 56.2631 26.9751 55.7943 27.1746 54.8565L28.471 48.7781C28.7702 47.4385 29.4516 46.3334 30.5153 45.4626C31.579 44.5919 32.7757 44.1565 34.1053 44.1565C35.7009 44.1565 37.0638 44.7426 38.194 45.9147C39.3242 47.0534 39.8893 48.4265 39.8893 50.034C39.8893 50.4694 39.8394 50.9047 39.7397 51.3401L35.5513 70.6805C35.3186 71.7857 34.8865 72.8574 34.2549 73.8956C33.0582 75.771 31.4627 76.826 29.4682 77.0604C26.676 77.3953 24.2327 75.8882 22.1386 72.5392L20.9419 70.5801C20.6759 70.1447 20.3435 69.927 19.9446 69.927Z" fill="#B4E900"/>
<path d="M53.7072 47.9565C55.1033 47.9565 56.2834 48.4589 57.2473 49.4636C58.2446 50.4683 58.7432 51.6739 58.7432 53.0805C58.7432 54.4871 58.2446 55.6927 57.2473 56.6974C56.2834 57.6686 55.1033 58.1542 53.7072 58.1542C53.0091 58.1542 52.444 58.4054 52.0119 58.9077C51.613 59.3766 51.4135 59.9627 51.4135 60.666V67.6486C51.4135 69.0552 50.9149 70.2608 49.9177 71.2655C48.9205 72.2702 47.7238 72.7726 46.3277 72.7726C44.9315 72.7726 43.7348 72.2702 42.7376 71.2655C41.7736 70.2608 41.2916 69.0552 41.2916 67.6486V53.181C41.2916 51.7744 41.7736 50.5687 42.7376 49.564C43.7348 48.5593 44.9315 48.057 46.3277 48.057C46.7266 48.057 47.1587 48.124 47.624 48.2579C48.8207 48.5259 49.8678 48.5593 50.7653 48.3584C51.7626 48.0905 52.7432 47.9565 53.7072 47.9565Z" fill="#B4E900"/>
<path d="M79.4903 45.1147C80.8864 45.1147 82.0831 45.6171 83.0803 46.6218C84.0776 47.593 84.5761 48.7819 84.5761 50.1885V63.7519C84.5761 65.1585 84.0776 66.3641 83.0803 67.3688C82.0831 68.3735 80.8864 68.8758 79.4903 68.8758C78.892 68.8758 78.3601 68.7754 77.8947 68.5744C77.4958 68.4405 77.0969 68.4405 76.698 68.5744C75.2354 69.1438 73.723 69.4284 72.1606 69.4284C68.77 69.4284 65.8614 68.2228 63.4348 65.8115C61.0082 63.3667 59.7949 60.4196 59.7949 56.9702C59.7949 53.5207 61.0082 50.5903 63.4348 48.1791C65.8614 45.7343 68.77 44.5119 72.1606 44.5119C73.8227 44.5119 75.4016 44.8301 76.8975 45.4664C77.1302 45.5668 77.4294 45.5501 77.795 45.4161C78.3601 45.2152 78.9252 45.1147 79.4903 45.1147ZM72.1606 59.281C72.7922 59.281 73.3241 59.0633 73.7562 58.6279C74.2216 58.1591 74.4543 57.6065 74.4543 56.9702C74.4543 56.3339 74.2216 55.798 73.7562 55.3626C73.3241 54.9273 72.7922 54.7096 72.1606 54.7096C71.5291 54.7096 70.9972 54.9273 70.5651 55.3626C70.1329 55.798 69.9169 56.3339 69.9169 56.9702C69.9169 57.6065 70.1329 58.1591 70.5651 58.6279C70.9972 59.0633 71.5291 59.281 72.1606 59.281Z" fill="#B4E900"/>
<path d="M111.26 54.4997C111.26 57.9157 110.047 60.8461 107.62 63.2908C105.193 65.7356 102.268 66.958 98.8444 66.958C98.246 66.958 97.7142 66.9245 97.2488 66.8575C96.8167 66.7905 96.6006 66.958 96.6006 67.3599V71.9815C96.6006 73.3881 96.102 74.577 95.1047 75.5482C94.1075 76.5529 92.9108 77.0552 91.5147 77.0552C90.1186 77.0552 88.9219 76.5529 87.9247 75.5482C86.9607 74.577 86.4787 73.3881 86.4787 71.9815V47.4166C86.4787 46.01 86.9607 44.8211 87.9247 43.8499C88.9219 42.8452 90.1186 42.3429 91.5147 42.3429C91.7806 42.3429 92.3624 42.4434 93.2599 42.6443C93.9579 42.7783 94.5397 42.7615 95.005 42.5941C96.235 42.1922 97.5147 41.9912 98.8444 41.9912C102.268 41.9912 105.193 43.2136 107.62 45.6584C110.047 48.1032 111.26 51.0503 111.26 54.4997ZM101.138 54.4997C101.138 53.8634 100.905 53.3276 100.44 52.8922C100.008 52.4234 99.4759 52.1889 98.8444 52.1889C98.2128 52.1889 97.681 52.4234 97.2488 52.8922C96.8167 53.3276 96.6006 53.8634 96.6006 54.4997C96.6006 55.136 96.8167 55.6719 97.2488 56.1073C97.681 56.5426 98.2128 56.7603 98.8444 56.7603C99.4759 56.7603 100.008 56.5426 100.44 56.1073C100.905 55.6719 101.138 55.136 101.138 54.4997Z" fill="#B4E900"/>
<path d="M137.505 56.9702C137.505 60.3861 136.292 63.3165 133.866 65.7613C131.439 68.206 128.514 69.4284 125.09 69.4284C124.492 69.4284 123.96 69.3949 123.494 69.328C123.062 69.261 122.846 69.4284 122.846 69.8303V74.4519C122.846 75.8585 122.347 77.0474 121.35 78.0186C120.353 79.0233 119.156 79.5256 117.76 79.5256C116.364 79.5256 115.167 79.0233 114.17 78.0186C113.206 77.0474 112.724 75.8585 112.724 74.4519V49.887C112.724 48.4805 113.206 47.2916 114.17 46.3204C115.167 45.3157 116.364 44.8133 117.76 44.8133C118.026 44.8133 118.608 44.9138 119.505 45.1147C120.203 45.2487 120.785 45.2319 121.251 45.0645C122.48 44.6626 123.76 44.4617 125.09 44.4617C128.514 44.4617 131.439 45.6841 133.866 48.1288C136.292 50.5736 137.505 53.5207 137.505 56.9702ZM127.384 56.9702C127.384 56.3339 127.151 55.798 126.685 55.3626C126.253 54.8938 125.721 54.6594 125.09 54.6594C124.458 54.6594 123.926 54.8938 123.494 55.3626C123.062 55.798 122.846 56.3339 122.846 56.9702C122.846 57.6065 123.062 58.1423 123.494 58.5777C123.926 59.0131 124.458 59.2307 125.09 59.2307C125.721 59.2307 126.253 59.0131 126.685 58.5777C127.151 58.1423 127.384 57.6065 127.384 56.9702Z" fill="#B4E900"/>
<path d="M151.485 70.3524C148.028 70.3524 145.069 69.13 142.61 66.6852C140.183 64.207 138.97 61.2264 138.97 57.7434C138.97 54.2939 140.183 51.3468 142.61 48.9021C145.069 46.4238 148.028 45.1847 151.485 45.1847C154.909 45.1847 157.784 46.3401 160.111 48.6509C160.876 49.4212 161.258 50.3589 161.258 51.464C161.258 52.5692 160.876 53.5069 160.111 54.2772L154.327 60.0542C153.496 60.8915 152.665 61.3101 151.834 61.3101C150.637 61.3101 149.707 60.9752 149.042 60.3054C148.377 59.6356 148.045 58.7481 148.045 57.6429C148.045 56.5713 148.427 55.6503 149.191 54.88L150.189 53.8251C150.322 53.7246 150.355 53.6241 150.288 53.5237C150.189 53.4567 150.056 53.4399 149.889 53.4734C149.225 53.6409 148.659 53.9758 148.194 54.4781C147.263 55.3824 146.798 56.4708 146.798 57.7434C146.798 59.0495 147.247 60.1714 148.144 61.1091C149.075 62.0134 150.189 62.4655 151.485 62.4655C152.748 62.4655 153.828 61.9966 154.726 61.0589C155.491 60.2886 156.421 59.9035 157.518 59.9035C158.615 59.9035 159.546 60.2886 160.31 61.0589C161.075 61.8292 161.457 62.7669 161.457 63.8721C161.457 64.9772 161.075 65.915 160.31 66.6852C157.851 69.13 154.909 70.3524 151.485 70.3524Z" fill="#B4E900"/>
<path d="M163.219 65.2049C163.219 61.7555 164.432 58.8251 166.859 56.4138C169.285 53.9691 172.194 52.7467 175.584 52.7467C176.216 52.7467 176.765 52.7802 177.23 52.8471C177.662 52.9141 177.878 52.7299 177.878 52.2946V49.2805C177.878 47.8739 178.36 46.6683 179.324 45.6636C180.321 44.6589 181.518 44.1565 182.914 44.1565C184.31 44.1565 185.507 44.6589 186.504 45.6636C187.501 46.6683 188 47.8739 188 49.2805V72.2881C188 73.6946 187.501 74.9003 186.504 75.905C185.507 76.8762 184.31 77.3618 182.914 77.3618C182.648 77.3618 182.066 77.2613 181.169 77.0604C180.504 76.8929 179.922 76.8929 179.424 77.0604C178.194 77.4623 176.914 77.6632 175.584 77.6632C172.194 77.6632 169.285 76.4576 166.859 74.0463C164.432 71.6015 163.219 68.6544 163.219 65.2049ZM173.341 65.2049C173.341 65.8413 173.557 66.3938 173.989 66.8627C174.421 67.2981 174.953 67.5157 175.584 67.5157C176.216 67.5157 176.748 67.2981 177.18 66.8627C177.645 66.3938 177.878 65.8413 177.878 65.2049C177.878 64.5686 177.645 64.0328 177.18 63.5974C176.748 63.1621 176.216 62.9444 175.584 62.9444C174.953 62.9444 174.421 63.1621 173.989 63.5974C173.557 64.0328 173.341 64.5686 173.341 65.2049Z" fill="#B4E900"/>
</svg>
