<svg width="1096" height="1356" viewBox="0 0 1096 1356" fill="none" xmlns="http://www.w3.org/2000/svg">
<g clip-path="url(#clip0_1592_587)">
<rect x="47" y="79.627" width="32" height="32" rx="16" transform="rotate(-45 47 79.627)" fill="white" fill-opacity="0.055"/>
<rect x="138.234" y="79.6289" width="32" height="32" rx="16" transform="rotate(-45 138.234 79.6289)" fill="white" fill-opacity="0.055"/>
<rect x="229.465" y="79.627" width="32" height="32" rx="16" transform="rotate(-45 229.465 79.627)" fill="white" fill-opacity="0.055"/>
<rect x="320.699" y="79.627" width="32" height="32" rx="16" transform="rotate(-45 320.699 79.627)" fill="white" fill-opacity="0.055"/>
<rect x="412" y="79.627" width="32" height="32" rx="16" transform="rotate(-45 412 79.627)" fill="white" fill-opacity="0.055"/>
<rect x="503.234" y="79.627" width="32" height="32" rx="16" transform="rotate(-45 503.234 79.627)" fill="white" fill-opacity="0.055"/>
<rect x="594.465" y="79.6289" width="32" height="32" rx="16" transform="rotate(-45 594.465 79.6289)" fill="white" fill-opacity="0.055"/>
<rect x="685.699" y="79.627" width="32" height="32" rx="16" transform="rotate(-45 685.699 79.627)" fill="white" fill-opacity="0.055"/>
<rect x="777" y="79.627" width="32" height="32" rx="16" transform="rotate(-45 777 79.627)" fill="white" fill-opacity="0.055"/>
<rect x="868.234" y="79.627" width="32" height="32" rx="16" transform="rotate(-45 868.234 79.627)" fill="white" fill-opacity="0.055"/>
<rect x="959.465" y="79.6289" width="32" height="32" rx="16" transform="rotate(-45 959.465 79.6289)" fill="white" fill-opacity="0.055"/>
<rect x="91" y="136.631" width="32" height="32" rx="16" transform="rotate(-45 91 136.631)" fill="white" fill-opacity="0.055"/>
<rect y="136.629" width="32" height="32" rx="16" transform="rotate(-45 0 136.629)" fill="white" fill-opacity="0.055"/>
<rect y="250.629" width="32" height="32" rx="16" transform="rotate(-45 0 250.629)" fill="white" fill-opacity="0.055"/>
<rect x="182.234" y="136.629" width="32" height="32" rx="16" transform="rotate(-45 182.234 136.629)" fill="white" fill-opacity="0.055"/>
<rect x="273.465" y="136.631" width="32" height="32" rx="16" transform="rotate(-45 273.465 136.631)" fill="white" fill-opacity="0.055"/>
<rect x="364.699" y="136.629" width="32" height="32" rx="16" transform="rotate(-45 364.699 136.629)" fill="white" fill-opacity="0.055"/>
<rect x="456" y="136.631" width="32" height="32" rx="16" transform="rotate(-45 456 136.631)" fill="white" fill-opacity="0.055"/>
<rect x="547.234" y="136.631" width="32" height="32" rx="16" transform="rotate(-45 547.234 136.631)" fill="white" fill-opacity="0.055"/>
<rect x="638.465" y="136.629" width="32" height="32" rx="16" transform="rotate(-45 638.465 136.629)" fill="white" fill-opacity="0.055"/>
<rect x="729.699" y="136.629" width="32" height="32" rx="16" transform="rotate(-45 729.699 136.629)" fill="white" fill-opacity="0.055"/>
<rect x="821" y="136.629" width="32" height="32" rx="16" transform="rotate(-45 821 136.629)" fill="white" fill-opacity="0.055"/>
<rect x="912.234" y="136.631" width="32" height="32" rx="16" transform="rotate(-45 912.234 136.631)" fill="white" fill-opacity="0.055"/>
<rect x="1003.46" y="136.629" width="32" height="32" rx="16" transform="rotate(-45 1003.46 136.629)" fill="white" fill-opacity="0.055"/>
<rect x="91" y="22.6289" width="32" height="32" rx="16" transform="rotate(-45 91 22.6289)" fill="white" fill-opacity="0.055"/>
<rect y="22.627" width="32" height="32" rx="16" transform="rotate(-45 0 22.627)" fill="white" fill-opacity="0.055"/>
<rect x="182.234" y="22.6289" width="32" height="32" rx="16" transform="rotate(-45 182.234 22.6289)" fill="white" fill-opacity="0.055"/>
<rect x="273.465" y="22.627" width="32" height="32" rx="16" transform="rotate(-45 273.465 22.627)" fill="white" fill-opacity="0.055"/>
<rect x="364.699" y="22.6289" width="32" height="32" rx="16" transform="rotate(-45 364.699 22.6289)" fill="white" fill-opacity="0.055"/>
<rect x="456" y="22.6289" width="32" height="32" rx="16" transform="rotate(-45 456 22.6289)" fill="white" fill-opacity="0.055"/>
<rect x="547.234" y="22.6289" width="32" height="32" rx="16" transform="rotate(-45 547.234 22.6289)" fill="white" fill-opacity="0.055"/>
<rect x="638.465" y="22.627" width="32" height="32" rx="16" transform="rotate(-45 638.465 22.627)" fill="white" fill-opacity="0.055"/>
<rect x="729.699" y="22.6289" width="32" height="32" rx="16" transform="rotate(-45 729.699 22.6289)" fill="white" fill-opacity="0.055"/>
<rect x="821" y="22.6289" width="32" height="32" rx="16" transform="rotate(-45 821 22.6289)" fill="white" fill-opacity="0.055"/>
<rect x="912.234" y="22.6289" width="32" height="32" rx="16" transform="rotate(-45 912.234 22.6289)" fill="white" fill-opacity="0.055"/>
<rect x="1003.46" y="22.6289" width="32" height="32" rx="16" transform="rotate(-45 1003.46 22.6289)" fill="white" fill-opacity="0.055"/>
<rect x="47" y="193.627" width="32" height="32" rx="16" transform="rotate(-45 47 193.627)" fill="white" fill-opacity="0.055"/>
<rect x="138.234" y="193.627" width="32" height="32" rx="16" transform="rotate(-45 138.234 193.627)" fill="white" fill-opacity="0.055"/>
<rect x="229.465" y="193.627" width="32" height="32" rx="16" transform="rotate(-45 229.465 193.627)" fill="white" fill-opacity="0.055"/>
<rect x="320.699" y="193.629" width="32" height="32" rx="16" transform="rotate(-45 320.699 193.629)" fill="white" fill-opacity="0.055"/>
<rect x="412" y="193.627" width="32" height="32" rx="16" transform="rotate(-45 412 193.627)" fill="white" fill-opacity="0.055"/>
<rect x="503.234" y="193.627" width="32" height="32" rx="16" transform="rotate(-45 503.234 193.627)" fill="white" fill-opacity="0.055"/>
<rect x="594.465" y="193.627" width="32" height="32" rx="16" transform="rotate(-45 594.465 193.627)" fill="white" fill-opacity="0.055"/>
<rect x="685.699" y="193.627" width="32" height="32" rx="16" transform="rotate(-45 685.699 193.627)" fill="white" fill-opacity="0.055"/>
<rect x="777" y="193.629" width="32" height="32" rx="16" transform="rotate(-45 777 193.629)" fill="white" fill-opacity="0.055"/>
<rect x="868.234" y="193.627" width="32" height="32" rx="16" transform="rotate(-45 868.234 193.627)" fill="white" fill-opacity="0.055"/>
<rect x="959.465" y="193.627" width="32" height="32" rx="16" transform="rotate(-45 959.465 193.627)" fill="white" fill-opacity="0.055"/>
<rect x="1051" y="79.627" width="32" height="32" rx="16" transform="rotate(-45 1051 79.627)" fill="white" fill-opacity="0.055"/>
<rect x="1051" y="307.627" width="32" height="32" rx="16" transform="rotate(-45 1051 307.627)" fill="white" fill-opacity="0.055"/>
<rect x="1051" y="193.627" width="32" height="32" rx="16" transform="rotate(-45 1051 193.627)" fill="white" fill-opacity="0.055"/>
<rect x="46.9805" y="307.605" width="32" height="32" rx="16" transform="rotate(-45 46.9805 307.605)" fill="white" fill-opacity="0.055"/>
<rect x="138.215" y="307.607" width="32" height="32" rx="16" transform="rotate(-45 138.215 307.607)" fill="white" fill-opacity="0.055"/>
<rect x="229.445" y="307.605" width="32" height="32" rx="16" transform="rotate(-45 229.445 307.605)" fill="white" fill-opacity="0.055"/>
<rect x="320.68" y="307.607" width="32" height="32" rx="16" transform="rotate(-45 320.68 307.607)" fill="white" fill-opacity="0.055"/>
<rect x="411.98" y="307.605" width="32" height="32" rx="16" transform="rotate(-45 411.98 307.605)" fill="white" fill-opacity="0.055"/>
<rect x="503.215" y="307.607" width="32" height="32" rx="16" transform="rotate(-45 503.215 307.607)" fill="white" fill-opacity="0.055"/>
<rect x="594.445" y="307.605" width="32" height="32" rx="16" transform="rotate(-45 594.445 307.605)" fill="white" fill-opacity="0.055"/>
<rect x="685.68" y="307.605" width="32" height="32" rx="16" transform="rotate(-45 685.68 307.605)" fill="white" fill-opacity="0.055"/>
<rect x="776.98" y="307.605" width="32" height="32" rx="16" transform="rotate(-45 776.98 307.605)" fill="white" fill-opacity="0.055"/>
<rect x="868.215" y="307.605" width="32" height="32" rx="16" transform="rotate(-45 868.215 307.605)" fill="white" fill-opacity="0.055"/>
<rect x="959.445" y="307.605" width="32" height="32" rx="16" transform="rotate(-45 959.445 307.605)" fill="white" fill-opacity="0.055"/>
<rect x="91" y="250.627" width="32" height="32" rx="16" transform="rotate(-45 91 250.627)" fill="white" fill-opacity="0.055"/>
<rect x="182.234" y="250.629" width="32" height="32" rx="16" transform="rotate(-45 182.234 250.629)" fill="white" fill-opacity="0.055"/>
<rect x="273.465" y="250.627" width="32" height="32" rx="16" transform="rotate(-45 273.465 250.627)" fill="white" fill-opacity="0.055"/>
<rect x="364.699" y="250.627" width="32" height="32" rx="16" transform="rotate(-45 364.699 250.627)" fill="white" fill-opacity="0.055"/>
<rect x="456" y="250.627" width="32" height="32" rx="16" transform="rotate(-45 456 250.627)" fill="white" fill-opacity="0.055"/>
<rect x="547.234" y="250.627" width="32" height="32" rx="16" transform="rotate(-45 547.234 250.627)" fill="white" fill-opacity="0.055"/>
<rect x="638.465" y="250.629" width="32" height="32" rx="16" transform="rotate(-45 638.465 250.629)" fill="white" fill-opacity="0.055"/>
<rect x="729.699" y="250.627" width="32" height="32" rx="16" transform="rotate(-45 729.699 250.627)" fill="white" fill-opacity="0.055"/>
<rect x="821" y="250.627" width="32" height="32" rx="16" transform="rotate(-45 821 250.627)" fill="white" fill-opacity="0.055"/>
<rect x="912.234" y="250.629" width="32" height="32" rx="16" transform="rotate(-45 912.234 250.629)" fill="white" fill-opacity="0.055"/>
<rect x="1003.46" y="250.629" width="32" height="32" rx="16" transform="rotate(-45 1003.46 250.629)" fill="white" fill-opacity="0.055"/>
<rect x="47" y="421.629" width="32" height="32" rx="16" transform="rotate(-45 47 421.629)" fill="white" fill-opacity="0.055"/>
<rect x="138.234" y="421.631" width="32" height="32" rx="16" transform="rotate(-45 138.234 421.631)" fill="white" fill-opacity="0.055"/>
<rect x="229.465" y="421.629" width="32" height="32" rx="16" transform="rotate(-45 229.465 421.629)" fill="white" fill-opacity="0.055"/>
<rect x="320.699" y="421.629" width="32" height="32" rx="16" transform="rotate(-45 320.699 421.629)" fill="white" fill-opacity="0.055"/>
<rect x="412" y="421.629" width="32" height="32" rx="16" transform="rotate(-45 412 421.629)" fill="white" fill-opacity="0.055"/>
<rect x="503.234" y="421.629" width="32" height="32" rx="16" transform="rotate(-45 503.234 421.629)" fill="white" fill-opacity="0.055"/>
<rect x="594.465" y="421.631" width="32" height="32" rx="16" transform="rotate(-45 594.465 421.631)" fill="white" fill-opacity="0.055"/>
<rect x="685.699" y="421.629" width="32" height="32" rx="16" transform="rotate(-45 685.699 421.629)" fill="white" fill-opacity="0.055"/>
<rect x="777" y="421.629" width="32" height="32" rx="16" transform="rotate(-45 777 421.629)" fill="white" fill-opacity="0.055"/>
<rect x="868.234" y="421.629" width="32" height="32" rx="16" transform="rotate(-45 868.234 421.629)" fill="white" fill-opacity="0.055"/>
<rect x="959.465" y="421.631" width="32" height="32" rx="16" transform="rotate(-45 959.465 421.631)" fill="white" fill-opacity="0.055"/>
<rect x="91" y="478.633" width="32" height="32" rx="16" transform="rotate(-45 91 478.633)" fill="white" fill-opacity="0.055"/>
<rect y="478.631" width="32" height="32" rx="16" transform="rotate(-45 0 478.631)" fill="white" fill-opacity="0.055"/>
<rect y="592.631" width="32" height="32" rx="16" transform="rotate(-45 0 592.631)" fill="white" fill-opacity="0.055"/>
<rect x="182.234" y="478.631" width="32" height="32" rx="16" transform="rotate(-45 182.234 478.631)" fill="white" fill-opacity="0.055"/>
<rect x="273.465" y="478.633" width="32" height="32" rx="16" transform="rotate(-45 273.465 478.633)" fill="white" fill-opacity="0.055"/>
<rect x="364.699" y="478.631" width="32" height="32" rx="16" transform="rotate(-45 364.699 478.631)" fill="white" fill-opacity="0.055"/>
<rect x="456" y="478.633" width="32" height="32" rx="16" transform="rotate(-45 456 478.633)" fill="white" fill-opacity="0.055"/>
<rect x="547.234" y="478.633" width="32" height="32" rx="16" transform="rotate(-45 547.234 478.633)" fill="white" fill-opacity="0.055"/>
<rect x="638.465" y="478.631" width="32" height="32" rx="16" transform="rotate(-45 638.465 478.631)" fill="white" fill-opacity="0.055"/>
<rect x="729.699" y="478.631" width="32" height="32" rx="16" transform="rotate(-45 729.699 478.631)" fill="white" fill-opacity="0.055"/>
<rect x="821" y="478.631" width="32" height="32" rx="16" transform="rotate(-45 821 478.631)" fill="white" fill-opacity="0.055"/>
<rect x="912.234" y="478.633" width="32" height="32" rx="16" transform="rotate(-45 912.234 478.633)" fill="white" fill-opacity="0.055"/>
<rect x="1003.46" y="478.631" width="32" height="32" rx="16" transform="rotate(-45 1003.46 478.631)" fill="white" fill-opacity="0.055"/>
<rect x="91" y="364.631" width="32" height="32" rx="16" transform="rotate(-45 91 364.631)" fill="white" fill-opacity="0.055"/>
<rect y="364.629" width="32" height="32" rx="16" transform="rotate(-45 0 364.629)" fill="white" fill-opacity="0.055"/>
<rect x="182.234" y="364.631" width="32" height="32" rx="16" transform="rotate(-45 182.234 364.631)" fill="white" fill-opacity="0.055"/>
<rect x="273.465" y="364.629" width="32" height="32" rx="16" transform="rotate(-45 273.465 364.629)" fill="white" fill-opacity="0.055"/>
<rect x="364.699" y="364.631" width="32" height="32" rx="16" transform="rotate(-45 364.699 364.631)" fill="white" fill-opacity="0.055"/>
<rect x="456" y="364.631" width="32" height="32" rx="16" transform="rotate(-45 456 364.631)" fill="white" fill-opacity="0.055"/>
<rect x="547.234" y="364.631" width="32" height="32" rx="16" transform="rotate(-45 547.234 364.631)" fill="white" fill-opacity="0.055"/>
<rect x="638.465" y="364.629" width="32" height="32" rx="16" transform="rotate(-45 638.465 364.629)" fill="white" fill-opacity="0.055"/>
<rect x="729.699" y="364.631" width="32" height="32" rx="16" transform="rotate(-45 729.699 364.631)" fill="white" fill-opacity="0.055"/>
<rect x="821" y="364.631" width="32" height="32" rx="16" transform="rotate(-45 821 364.631)" fill="white" fill-opacity="0.055"/>
<rect x="912.234" y="364.631" width="32" height="32" rx="16" transform="rotate(-45 912.234 364.631)" fill="white" fill-opacity="0.055"/>
<rect x="1003.46" y="364.631" width="32" height="32" rx="16" transform="rotate(-45 1003.46 364.631)" fill="white" fill-opacity="0.055"/>
<rect x="47" y="535.629" width="32" height="32" rx="16" transform="rotate(-45 47 535.629)" fill="white" fill-opacity="0.055"/>
<rect x="138.234" y="535.629" width="32" height="32" rx="16" transform="rotate(-45 138.234 535.629)" fill="white" fill-opacity="0.055"/>
<rect x="229.465" y="535.629" width="32" height="32" rx="16" transform="rotate(-45 229.465 535.629)" fill="white" fill-opacity="0.055"/>
<rect x="320.699" y="535.631" width="32" height="32" rx="16" transform="rotate(-45 320.699 535.631)" fill="white" fill-opacity="0.055"/>
<rect x="412" y="535.629" width="32" height="32" rx="16" transform="rotate(-45 412 535.629)" fill="white" fill-opacity="0.055"/>
<rect x="503.234" y="535.629" width="32" height="32" rx="16" transform="rotate(-45 503.234 535.629)" fill="white" fill-opacity="0.055"/>
<rect x="594.465" y="535.629" width="32" height="32" rx="16" transform="rotate(-45 594.465 535.629)" fill="white" fill-opacity="0.055"/>
<rect x="685.699" y="535.629" width="32" height="32" rx="16" transform="rotate(-45 685.699 535.629)" fill="white" fill-opacity="0.055"/>
<rect x="777" y="535.631" width="32" height="32" rx="16" transform="rotate(-45 777 535.631)" fill="white" fill-opacity="0.055"/>
<rect x="868.234" y="535.629" width="32" height="32" rx="16" transform="rotate(-45 868.234 535.629)" fill="white" fill-opacity="0.055"/>
<rect x="959.465" y="535.629" width="32" height="32" rx="16" transform="rotate(-45 959.465 535.629)" fill="white" fill-opacity="0.055"/>
<rect x="1051" y="421.629" width="32" height="32" rx="16" transform="rotate(-45 1051 421.629)" fill="white" fill-opacity="0.055"/>
<rect x="1051" y="649.629" width="32" height="32" rx="16" transform="rotate(-45 1051 649.629)" fill="white" fill-opacity="0.055"/>
<rect x="1051" y="535.629" width="32" height="32" rx="16" transform="rotate(-45 1051 535.629)" fill="white" fill-opacity="0.055"/>
<rect x="46.9805" y="649.607" width="32" height="32" rx="16" transform="rotate(-45 46.9805 649.607)" fill="white" fill-opacity="0.055"/>
<rect x="138.215" y="649.609" width="32" height="32" rx="16" transform="rotate(-45 138.215 649.609)" fill="white" fill-opacity="0.055"/>
<rect x="229.445" y="649.607" width="32" height="32" rx="16" transform="rotate(-45 229.445 649.607)" fill="white" fill-opacity="0.055"/>
<rect x="320.68" y="649.609" width="32" height="32" rx="16" transform="rotate(-45 320.68 649.609)" fill="white" fill-opacity="0.055"/>
<rect x="411.98" y="649.607" width="32" height="32" rx="16" transform="rotate(-45 411.98 649.607)" fill="white" fill-opacity="0.055"/>
<rect x="503.215" y="649.609" width="32" height="32" rx="16" transform="rotate(-45 503.215 649.609)" fill="white" fill-opacity="0.055"/>
<rect x="594.445" y="649.607" width="32" height="32" rx="16" transform="rotate(-45 594.445 649.607)" fill="white" fill-opacity="0.055"/>
<rect x="685.68" y="649.607" width="32" height="32" rx="16" transform="rotate(-45 685.68 649.607)" fill="white" fill-opacity="0.055"/>
<rect x="776.98" y="649.607" width="32" height="32" rx="16" transform="rotate(-45 776.98 649.607)" fill="white" fill-opacity="0.055"/>
<rect x="868.215" y="649.607" width="32" height="32" rx="16" transform="rotate(-45 868.215 649.607)" fill="white" fill-opacity="0.055"/>
<rect x="959.445" y="649.607" width="32" height="32" rx="16" transform="rotate(-45 959.445 649.607)" fill="white" fill-opacity="0.055"/>
<rect x="91" y="592.629" width="32" height="32" rx="16" transform="rotate(-45 91 592.629)" fill="white" fill-opacity="0.055"/>
<rect x="182.234" y="592.631" width="32" height="32" rx="16" transform="rotate(-45 182.234 592.631)" fill="white" fill-opacity="0.055"/>
<rect x="273.465" y="592.629" width="32" height="32" rx="16" transform="rotate(-45 273.465 592.629)" fill="white" fill-opacity="0.055"/>
<rect x="364.699" y="592.629" width="32" height="32" rx="16" transform="rotate(-45 364.699 592.629)" fill="white" fill-opacity="0.055"/>
<rect x="456" y="592.629" width="32" height="32" rx="16" transform="rotate(-45 456 592.629)" fill="white" fill-opacity="0.055"/>
<rect x="547.234" y="592.629" width="32" height="32" rx="16" transform="rotate(-45 547.234 592.629)" fill="white" fill-opacity="0.055"/>
<rect x="638.465" y="592.631" width="32" height="32" rx="16" transform="rotate(-45 638.465 592.631)" fill="white" fill-opacity="0.055"/>
<rect x="729.699" y="592.629" width="32" height="32" rx="16" transform="rotate(-45 729.699 592.629)" fill="white" fill-opacity="0.055"/>
<rect x="821" y="592.629" width="32" height="32" rx="16" transform="rotate(-45 821 592.629)" fill="white" fill-opacity="0.055"/>
<rect x="912.234" y="592.631" width="32" height="32" rx="16" transform="rotate(-45 912.234 592.631)" fill="white" fill-opacity="0.055"/>
<rect x="1003.46" y="592.631" width="32" height="32" rx="16" transform="rotate(-45 1003.46 592.631)" fill="white" fill-opacity="0.055"/>
<rect x="47" y="763.629" width="32" height="32" rx="16" transform="rotate(-45 47 763.629)" fill="white" fill-opacity="0.055"/>
<rect x="138.234" y="763.631" width="32" height="32" rx="16" transform="rotate(-45 138.234 763.631)" fill="white" fill-opacity="0.055"/>
<rect x="229.465" y="763.629" width="32" height="32" rx="16" transform="rotate(-45 229.465 763.629)" fill="white" fill-opacity="0.055"/>
<rect x="320.699" y="763.629" width="32" height="32" rx="16" transform="rotate(-45 320.699 763.629)" fill="white" fill-opacity="0.055"/>
<rect x="412" y="763.629" width="32" height="32" rx="16" transform="rotate(-45 412 763.629)" fill="white" fill-opacity="0.055"/>
<rect x="503.234" y="763.629" width="32" height="32" rx="16" transform="rotate(-45 503.234 763.629)" fill="white" fill-opacity="0.055"/>
<rect x="594.465" y="763.631" width="32" height="32" rx="16" transform="rotate(-45 594.465 763.631)" fill="white" fill-opacity="0.055"/>
<rect x="685.699" y="763.629" width="32" height="32" rx="16" transform="rotate(-45 685.699 763.629)" fill="white" fill-opacity="0.055"/>
<rect x="777" y="763.629" width="32" height="32" rx="16" transform="rotate(-45 777 763.629)" fill="white" fill-opacity="0.055"/>
<rect x="868.234" y="763.629" width="32" height="32" rx="16" transform="rotate(-45 868.234 763.629)" fill="white" fill-opacity="0.055"/>
<rect x="959.465" y="763.631" width="32" height="32" rx="16" transform="rotate(-45 959.465 763.631)" fill="white" fill-opacity="0.055"/>
<rect x="91" y="820.633" width="32" height="32" rx="16" transform="rotate(-45 91 820.633)" fill="white" fill-opacity="0.055"/>
<rect y="820.631" width="32" height="32" rx="16" transform="rotate(-45 0 820.631)" fill="white" fill-opacity="0.055"/>
<rect y="934.631" width="32" height="32" rx="16" transform="rotate(-45 0 934.631)" fill="white" fill-opacity="0.055"/>
<rect x="182.234" y="820.631" width="32" height="32" rx="16" transform="rotate(-45 182.234 820.631)" fill="white" fill-opacity="0.055"/>
<rect x="273.465" y="820.633" width="32" height="32" rx="16" transform="rotate(-45 273.465 820.633)" fill="white" fill-opacity="0.055"/>
<rect x="364.699" y="820.631" width="32" height="32" rx="16" transform="rotate(-45 364.699 820.631)" fill="white" fill-opacity="0.055"/>
<rect x="456" y="820.633" width="32" height="32" rx="16" transform="rotate(-45 456 820.633)" fill="white" fill-opacity="0.055"/>
<rect x="547.234" y="820.633" width="32" height="32" rx="16" transform="rotate(-45 547.234 820.633)" fill="white" fill-opacity="0.055"/>
<rect x="638.465" y="820.631" width="32" height="32" rx="16" transform="rotate(-45 638.465 820.631)" fill="white" fill-opacity="0.055"/>
<rect x="729.699" y="820.631" width="32" height="32" rx="16" transform="rotate(-45 729.699 820.631)" fill="white" fill-opacity="0.055"/>
<rect x="821" y="820.631" width="32" height="32" rx="16" transform="rotate(-45 821 820.631)" fill="white" fill-opacity="0.055"/>
<rect x="912.234" y="820.633" width="32" height="32" rx="16" transform="rotate(-45 912.234 820.633)" fill="white" fill-opacity="0.055"/>
<rect x="1003.46" y="820.631" width="32" height="32" rx="16" transform="rotate(-45 1003.46 820.631)" fill="white" fill-opacity="0.055"/>
<rect x="91" y="706.631" width="32" height="32" rx="16" transform="rotate(-45 91 706.631)" fill="white" fill-opacity="0.055"/>
<rect y="706.629" width="32" height="32" rx="16" transform="rotate(-45 0 706.629)" fill="white" fill-opacity="0.055"/>
<rect x="182.234" y="706.631" width="32" height="32" rx="16" transform="rotate(-45 182.234 706.631)" fill="white" fill-opacity="0.055"/>
<rect x="273.465" y="706.629" width="32" height="32" rx="16" transform="rotate(-45 273.465 706.629)" fill="white" fill-opacity="0.055"/>
<rect x="364.699" y="706.631" width="32" height="32" rx="16" transform="rotate(-45 364.699 706.631)" fill="white" fill-opacity="0.055"/>
<rect x="456" y="706.631" width="32" height="32" rx="16" transform="rotate(-45 456 706.631)" fill="white" fill-opacity="0.055"/>
<rect x="547.234" y="706.631" width="32" height="32" rx="16" transform="rotate(-45 547.234 706.631)" fill="white" fill-opacity="0.055"/>
<rect x="638.465" y="706.629" width="32" height="32" rx="16" transform="rotate(-45 638.465 706.629)" fill="white" fill-opacity="0.055"/>
<rect x="729.699" y="706.631" width="32" height="32" rx="16" transform="rotate(-45 729.699 706.631)" fill="white" fill-opacity="0.055"/>
<rect x="821" y="706.631" width="32" height="32" rx="16" transform="rotate(-45 821 706.631)" fill="white" fill-opacity="0.055"/>
<rect x="912.234" y="706.631" width="32" height="32" rx="16" transform="rotate(-45 912.234 706.631)" fill="white" fill-opacity="0.055"/>
<rect x="1003.46" y="706.631" width="32" height="32" rx="16" transform="rotate(-45 1003.46 706.631)" fill="white" fill-opacity="0.055"/>
<rect x="47" y="877.629" width="32" height="32" rx="16" transform="rotate(-45 47 877.629)" fill="white" fill-opacity="0.055"/>
<rect x="138.234" y="877.629" width="32" height="32" rx="16" transform="rotate(-45 138.234 877.629)" fill="white" fill-opacity="0.055"/>
<rect x="229.465" y="877.629" width="32" height="32" rx="16" transform="rotate(-45 229.465 877.629)" fill="white" fill-opacity="0.055"/>
<rect x="320.699" y="877.631" width="32" height="32" rx="16" transform="rotate(-45 320.699 877.631)" fill="white" fill-opacity="0.055"/>
<rect x="412" y="877.629" width="32" height="32" rx="16" transform="rotate(-45 412 877.629)" fill="white" fill-opacity="0.055"/>
<rect x="503.234" y="877.629" width="32" height="32" rx="16" transform="rotate(-45 503.234 877.629)" fill="white" fill-opacity="0.055"/>
<rect x="594.465" y="877.629" width="32" height="32" rx="16" transform="rotate(-45 594.465 877.629)" fill="white" fill-opacity="0.055"/>
<rect x="685.699" y="877.629" width="32" height="32" rx="16" transform="rotate(-45 685.699 877.629)" fill="white" fill-opacity="0.055"/>
<rect x="777" y="877.631" width="32" height="32" rx="16" transform="rotate(-45 777 877.631)" fill="white" fill-opacity="0.055"/>
<rect x="868.234" y="877.629" width="32" height="32" rx="16" transform="rotate(-45 868.234 877.629)" fill="white" fill-opacity="0.055"/>
<rect x="959.465" y="877.629" width="32" height="32" rx="16" transform="rotate(-45 959.465 877.629)" fill="white" fill-opacity="0.055"/>
<rect x="1051" y="763.629" width="32" height="32" rx="16" transform="rotate(-45 1051 763.629)" fill="white" fill-opacity="0.055"/>
<rect x="1051" y="991.629" width="32" height="32" rx="16" transform="rotate(-45 1051 991.629)" fill="white" fill-opacity="0.055"/>
<rect x="1051" y="877.629" width="32" height="32" rx="16" transform="rotate(-45 1051 877.629)" fill="white" fill-opacity="0.055"/>
<rect x="46.9805" y="991.607" width="32" height="32" rx="16" transform="rotate(-45 46.9805 991.607)" fill="white" fill-opacity="0.055"/>
<rect x="138.215" y="991.609" width="32" height="32" rx="16" transform="rotate(-45 138.215 991.609)" fill="white" fill-opacity="0.055"/>
<rect x="229.445" y="991.607" width="32" height="32" rx="16" transform="rotate(-45 229.445 991.607)" fill="white" fill-opacity="0.055"/>
<rect x="320.68" y="991.609" width="32" height="32" rx="16" transform="rotate(-45 320.68 991.609)" fill="white" fill-opacity="0.055"/>
<rect x="411.98" y="991.607" width="32" height="32" rx="16" transform="rotate(-45 411.98 991.607)" fill="white" fill-opacity="0.055"/>
<rect x="503.215" y="991.609" width="32" height="32" rx="16" transform="rotate(-45 503.215 991.609)" fill="white" fill-opacity="0.055"/>
<rect x="594.445" y="991.607" width="32" height="32" rx="16" transform="rotate(-45 594.445 991.607)" fill="white" fill-opacity="0.055"/>
<rect x="685.68" y="991.607" width="32" height="32" rx="16" transform="rotate(-45 685.68 991.607)" fill="white" fill-opacity="0.055"/>
<rect x="776.98" y="991.607" width="32" height="32" rx="16" transform="rotate(-45 776.98 991.607)" fill="white" fill-opacity="0.055"/>
<rect x="868.215" y="991.607" width="32" height="32" rx="16" transform="rotate(-45 868.215 991.607)" fill="white" fill-opacity="0.055"/>
<rect x="959.445" y="991.607" width="32" height="32" rx="16" transform="rotate(-45 959.445 991.607)" fill="white" fill-opacity="0.055"/>
<rect x="91" y="934.629" width="32" height="32" rx="16" transform="rotate(-45 91 934.629)" fill="white" fill-opacity="0.055"/>
<rect x="182.234" y="934.631" width="32" height="32" rx="16" transform="rotate(-45 182.234 934.631)" fill="white" fill-opacity="0.055"/>
<rect x="273.465" y="934.629" width="32" height="32" rx="16" transform="rotate(-45 273.465 934.629)" fill="white" fill-opacity="0.055"/>
<rect x="364.699" y="934.629" width="32" height="32" rx="16" transform="rotate(-45 364.699 934.629)" fill="white" fill-opacity="0.055"/>
<rect x="456" y="934.629" width="32" height="32" rx="16" transform="rotate(-45 456 934.629)" fill="white" fill-opacity="0.055"/>
<rect x="547.234" y="934.629" width="32" height="32" rx="16" transform="rotate(-45 547.234 934.629)" fill="white" fill-opacity="0.055"/>
<rect x="638.465" y="934.631" width="32" height="32" rx="16" transform="rotate(-45 638.465 934.631)" fill="white" fill-opacity="0.055"/>
<rect x="729.699" y="934.629" width="32" height="32" rx="16" transform="rotate(-45 729.699 934.629)" fill="white" fill-opacity="0.055"/>
<rect x="821" y="934.629" width="32" height="32" rx="16" transform="rotate(-45 821 934.629)" fill="white" fill-opacity="0.055"/>
<rect x="912.234" y="934.631" width="32" height="32" rx="16" transform="rotate(-45 912.234 934.631)" fill="white" fill-opacity="0.055"/>
<rect x="1003.46" y="934.631" width="32" height="32" rx="16" transform="rotate(-45 1003.46 934.631)" fill="white" fill-opacity="0.055"/>
<rect x="47" y="1105.63" width="32" height="32" rx="16" transform="rotate(-45 47 1105.63)" fill="white" fill-opacity="0.055"/>
<rect x="138.234" y="1105.63" width="32" height="32" rx="16" transform="rotate(-45 138.234 1105.63)" fill="white" fill-opacity="0.055"/>
<rect x="229.465" y="1105.63" width="32" height="32" rx="16" transform="rotate(-45 229.465 1105.63)" fill="white" fill-opacity="0.055"/>
<rect x="320.699" y="1105.63" width="32" height="32" rx="16" transform="rotate(-45 320.699 1105.63)" fill="white" fill-opacity="0.055"/>
<rect x="412" y="1105.63" width="32" height="32" rx="16" transform="rotate(-45 412 1105.63)" fill="white" fill-opacity="0.055"/>
<rect x="503.234" y="1105.63" width="32" height="32" rx="16" transform="rotate(-45 503.234 1105.63)" fill="white" fill-opacity="0.055"/>
<rect x="594.465" y="1105.63" width="32" height="32" rx="16" transform="rotate(-45 594.465 1105.63)" fill="white" fill-opacity="0.055"/>
<rect x="685.699" y="1105.63" width="32" height="32" rx="16" transform="rotate(-45 685.699 1105.63)" fill="white" fill-opacity="0.055"/>
<rect x="777" y="1105.63" width="32" height="32" rx="16" transform="rotate(-45 777 1105.63)" fill="white" fill-opacity="0.055"/>
<rect x="868.234" y="1105.63" width="32" height="32" rx="16" transform="rotate(-45 868.234 1105.63)" fill="white" fill-opacity="0.055"/>
<rect x="959.465" y="1105.63" width="32" height="32" rx="16" transform="rotate(-45 959.465 1105.63)" fill="white" fill-opacity="0.055"/>
<rect x="91" y="1162.63" width="32" height="32" rx="16" transform="rotate(-45 91 1162.63)" fill="white" fill-opacity="0.055"/>
<rect y="1162.63" width="32" height="32" rx="16" transform="rotate(-45 0 1162.63)" fill="white" fill-opacity="0.055"/>
<rect y="1276.63" width="32" height="32" rx="16" transform="rotate(-45 0 1276.63)" fill="white" fill-opacity="0.055"/>
<rect x="182.234" y="1162.63" width="32" height="32" rx="16" transform="rotate(-45 182.234 1162.63)" fill="white" fill-opacity="0.055"/>
<rect x="273.465" y="1162.63" width="32" height="32" rx="16" transform="rotate(-45 273.465 1162.63)" fill="white" fill-opacity="0.055"/>
<rect x="364.699" y="1162.63" width="32" height="32" rx="16" transform="rotate(-45 364.699 1162.63)" fill="white" fill-opacity="0.055"/>
<rect x="456" y="1162.63" width="32" height="32" rx="16" transform="rotate(-45 456 1162.63)" fill="white" fill-opacity="0.055"/>
<rect x="547.234" y="1162.63" width="32" height="32" rx="16" transform="rotate(-45 547.234 1162.63)" fill="white" fill-opacity="0.055"/>
<rect x="638.465" y="1162.63" width="32" height="32" rx="16" transform="rotate(-45 638.465 1162.63)" fill="white" fill-opacity="0.055"/>
<rect x="729.699" y="1162.63" width="32" height="32" rx="16" transform="rotate(-45 729.699 1162.63)" fill="white" fill-opacity="0.055"/>
<rect x="821" y="1162.63" width="32" height="32" rx="16" transform="rotate(-45 821 1162.63)" fill="white" fill-opacity="0.055"/>
<rect x="912.234" y="1162.63" width="32" height="32" rx="16" transform="rotate(-45 912.234 1162.63)" fill="white" fill-opacity="0.055"/>
<rect x="1003.46" y="1162.63" width="32" height="32" rx="16" transform="rotate(-45 1003.46 1162.63)" fill="white" fill-opacity="0.055"/>
<rect x="91" y="1048.63" width="32" height="32" rx="16" transform="rotate(-45 91 1048.63)" fill="white" fill-opacity="0.055"/>
<rect y="1048.63" width="32" height="32" rx="16" transform="rotate(-45 0 1048.63)" fill="white" fill-opacity="0.055"/>
<rect x="182.234" y="1048.63" width="32" height="32" rx="16" transform="rotate(-45 182.234 1048.63)" fill="white" fill-opacity="0.055"/>
<rect x="273.465" y="1048.63" width="32" height="32" rx="16" transform="rotate(-45 273.465 1048.63)" fill="white" fill-opacity="0.055"/>
<rect x="364.699" y="1048.63" width="32" height="32" rx="16" transform="rotate(-45 364.699 1048.63)" fill="white" fill-opacity="0.055"/>
<rect x="456" y="1048.63" width="32" height="32" rx="16" transform="rotate(-45 456 1048.63)" fill="white" fill-opacity="0.055"/>
<rect x="547.234" y="1048.63" width="32" height="32" rx="16" transform="rotate(-45 547.234 1048.63)" fill="white" fill-opacity="0.055"/>
<rect x="638.465" y="1048.63" width="32" height="32" rx="16" transform="rotate(-45 638.465 1048.63)" fill="white" fill-opacity="0.055"/>
<rect x="729.699" y="1048.63" width="32" height="32" rx="16" transform="rotate(-45 729.699 1048.63)" fill="white" fill-opacity="0.055"/>
<rect x="821" y="1048.63" width="32" height="32" rx="16" transform="rotate(-45 821 1048.63)" fill="white" fill-opacity="0.055"/>
<rect x="912.234" y="1048.63" width="32" height="32" rx="16" transform="rotate(-45 912.234 1048.63)" fill="white" fill-opacity="0.055"/>
<rect x="1003.46" y="1048.63" width="32" height="32" rx="16" transform="rotate(-45 1003.46 1048.63)" fill="white" fill-opacity="0.055"/>
<rect x="47" y="1219.63" width="32" height="32" rx="16" transform="rotate(-45 47 1219.63)" fill="white" fill-opacity="0.055"/>
<rect x="138.234" y="1219.63" width="32" height="32" rx="16" transform="rotate(-45 138.234 1219.63)" fill="white" fill-opacity="0.055"/>
<rect x="229.465" y="1219.63" width="32" height="32" rx="16" transform="rotate(-45 229.465 1219.63)" fill="white" fill-opacity="0.055"/>
<rect x="320.699" y="1219.63" width="32" height="32" rx="16" transform="rotate(-45 320.699 1219.63)" fill="white" fill-opacity="0.055"/>
<rect x="412" y="1219.63" width="32" height="32" rx="16" transform="rotate(-45 412 1219.63)" fill="white" fill-opacity="0.055"/>
<rect x="503.234" y="1219.63" width="32" height="32" rx="16" transform="rotate(-45 503.234 1219.63)" fill="white" fill-opacity="0.055"/>
<rect x="594.465" y="1219.63" width="32" height="32" rx="16" transform="rotate(-45 594.465 1219.63)" fill="white" fill-opacity="0.055"/>
<rect x="685.699" y="1219.63" width="32" height="32" rx="16" transform="rotate(-45 685.699 1219.63)" fill="white" fill-opacity="0.055"/>
<rect x="777" y="1219.63" width="32" height="32" rx="16" transform="rotate(-45 777 1219.63)" fill="white" fill-opacity="0.055"/>
<rect x="868.234" y="1219.63" width="32" height="32" rx="16" transform="rotate(-45 868.234 1219.63)" fill="white" fill-opacity="0.055"/>
<rect x="959.465" y="1219.63" width="32" height="32" rx="16" transform="rotate(-45 959.465 1219.63)" fill="white" fill-opacity="0.055"/>
<rect x="1051" y="1105.63" width="32" height="32" rx="16" transform="rotate(-45 1051 1105.63)" fill="white" fill-opacity="0.055"/>
<rect x="1051" y="1333.63" width="32" height="32" rx="16" transform="rotate(-45 1051 1333.63)" fill="white" fill-opacity="0.055"/>
<rect x="1051" y="1219.63" width="32" height="32" rx="16" transform="rotate(-45 1051 1219.63)" fill="white" fill-opacity="0.055"/>
<rect x="46.9805" y="1333.61" width="32" height="32" rx="16" transform="rotate(-45 46.9805 1333.61)" fill="white" fill-opacity="0.055"/>
<rect x="138.215" y="1333.61" width="32" height="32" rx="16" transform="rotate(-45 138.215 1333.61)" fill="white" fill-opacity="0.055"/>
<rect x="229.445" y="1333.61" width="32" height="32" rx="16" transform="rotate(-45 229.445 1333.61)" fill="white" fill-opacity="0.055"/>
<rect x="320.68" y="1333.61" width="32" height="32" rx="16" transform="rotate(-45 320.68 1333.61)" fill="white" fill-opacity="0.055"/>
<rect x="411.98" y="1333.61" width="32" height="32" rx="16" transform="rotate(-45 411.98 1333.61)" fill="white" fill-opacity="0.055"/>
<rect x="503.215" y="1333.61" width="32" height="32" rx="16" transform="rotate(-45 503.215 1333.61)" fill="white" fill-opacity="0.055"/>
<rect x="594.445" y="1333.61" width="32" height="32" rx="16" transform="rotate(-45 594.445 1333.61)" fill="white" fill-opacity="0.055"/>
<rect x="685.68" y="1333.61" width="32" height="32" rx="16" transform="rotate(-45 685.68 1333.61)" fill="white" fill-opacity="0.055"/>
<rect x="776.98" y="1333.61" width="32" height="32" rx="16" transform="rotate(-45 776.98 1333.61)" fill="white" fill-opacity="0.055"/>
<rect x="868.215" y="1333.61" width="32" height="32" rx="16" transform="rotate(-45 868.215 1333.61)" fill="white" fill-opacity="0.055"/>
<rect x="959.445" y="1333.61" width="32" height="32" rx="16" transform="rotate(-45 959.445 1333.61)" fill="white" fill-opacity="0.055"/>
<rect x="91" y="1276.63" width="32" height="32" rx="16" transform="rotate(-45 91 1276.63)" fill="white" fill-opacity="0.055"/>
<rect x="182.234" y="1276.63" width="32" height="32" rx="16" transform="rotate(-45 182.234 1276.63)" fill="white" fill-opacity="0.055"/>
<rect x="273.465" y="1276.63" width="32" height="32" rx="16" transform="rotate(-45 273.465 1276.63)" fill="white" fill-opacity="0.055"/>
<rect x="364.699" y="1276.63" width="32" height="32" rx="16" transform="rotate(-45 364.699 1276.63)" fill="white" fill-opacity="0.055"/>
<rect x="456" y="1276.63" width="32" height="32" rx="16" transform="rotate(-45 456 1276.63)" fill="white" fill-opacity="0.055"/>
<rect x="547.234" y="1276.63" width="32" height="32" rx="16" transform="rotate(-45 547.234 1276.63)" fill="white" fill-opacity="0.055"/>
<rect x="638.465" y="1276.63" width="32" height="32" rx="16" transform="rotate(-45 638.465 1276.63)" fill="white" fill-opacity="0.055"/>
<rect x="729.699" y="1276.63" width="32" height="32" rx="16" transform="rotate(-45 729.699 1276.63)" fill="white" fill-opacity="0.055"/>
<rect x="821" y="1276.63" width="32" height="32" rx="16" transform="rotate(-45 821 1276.63)" fill="white" fill-opacity="0.055"/>
<rect x="912.234" y="1276.63" width="32" height="32" rx="16" transform="rotate(-45 912.234 1276.63)" fill="white" fill-opacity="0.055"/>
<rect x="1003.46" y="1276.63" width="32" height="32" rx="16" transform="rotate(-45 1003.46 1276.63)" fill="white" fill-opacity="0.055"/>
</g>
<defs>
<clipPath id="clip0_1592_587">
<rect width="1096" height="1356" fill="white"/>
</clipPath>
</defs>
</svg>
