<svg width="245" height="82" viewBox="0 0 245 82" fill="none" xmlns="http://www.w3.org/2000/svg">
<path d="M39.8886 6.11082C35.0787 12.6714 32.127 17.6129 28.0842 25.3129C27.6298 26.1783 26.5237 26.428 25.7005 25.9041C25.2232 25.6002 24.9582 25.0537 25.0596 24.4957C25.5701 21.6881 27.2785 13.1061 29.9497 7.85258C30.9823 5.82181 32.6248 3.37182 33.9444 1.51259C35.0974 -0.111829 37.3229 -0.470376 38.9711 0.644053C40.7747 1.86358 41.1774 4.35292 39.8886 6.11082Z" fill="#FDF6EE"/>
<path d="M54.6142 22.1746C58.7889 22.1746 61.0595 27.0701 58.3712 30.2749L40.3554 51.7518C40.135 52.0145 40.1357 52.3985 40.3571 52.6604L58.3059 73.8917C61.0122 77.0929 58.7446 82.0064 54.561 82.0064H41.3489C39.9065 82.0064 38.537 81.3701 37.604 80.2665L31.1161 72.592C30.6936 72.0922 29.8796 72.392 29.8796 73.0473V77.0791C29.8796 79.8004 27.6649 82.049 24.989 81.6059C10.8495 79.2648 0.0649221 66.9414 0.0649221 52.0905C0.0649221 37.2397 10.8495 24.9162 24.989 22.5751C27.6649 22.132 29.8796 24.3806 29.8796 27.1019V31.4483C29.8796 32.1049 30.6964 32.4039 31.1178 31.9016L37.8055 23.929C38.7385 22.8167 40.1136 22.1746 41.5625 22.1746H54.6142Z" fill="#FDF6EE"/>
<path d="M17.7528 3.65377C13.1501 1.12857 5.28997 0.875329 1.40164 0.921338C0.29766 0.9344 -0.354298 2.08003 0.203166 3.03624C1.97859 6.08161 5.6848 11.7111 10.017 14.0879C14.6197 16.6131 22.4798 16.8663 26.3681 16.8203C27.4721 16.8072 28.1241 15.6616 27.5666 14.7054C25.7912 11.66 22.085 6.03057 17.7528 3.65377Z" fill="#FDF6EE"/>
<path d="M109.383 46.9502L100.707 37.3179V46.9502H97.9562V25.8379H100.707V35.6217L109.413 25.8379H112.89L103.337 36.4092L112.98 46.9502H109.383Z" fill="#FDF6EE"/>
<path d="M123.277 47.2229C121.726 47.2229 120.315 46.8695 119.045 46.1627C117.796 45.4559 116.808 44.4563 116.083 43.164C115.377 41.8514 115.025 40.3369 115.025 38.6204C115.025 36.9241 115.387 35.4298 116.113 34.1374C116.859 32.8249 117.866 31.8253 119.136 31.1387C120.406 30.4319 121.826 30.0785 123.398 30.0785C124.97 30.0785 126.391 30.4319 127.661 31.1387C128.93 31.8253 129.928 32.8148 130.653 34.1071C131.399 35.3995 131.772 36.904 131.772 38.6204C131.772 40.3369 131.389 41.8514 130.623 43.164C129.877 44.4563 128.86 45.4559 127.57 46.1627C126.28 46.8695 124.849 47.2229 123.277 47.2229ZM123.277 44.7996C124.265 44.7996 125.192 44.5674 126.058 44.103C126.925 43.6385 127.62 42.9418 128.144 42.0129C128.688 41.084 128.96 39.9532 128.96 38.6204C128.96 37.2876 128.698 36.1568 128.175 35.2279C127.651 34.299 126.965 33.6124 126.119 33.1681C125.272 32.7037 124.356 32.4715 123.368 32.4715C122.36 32.4715 121.433 32.7037 120.587 33.1681C119.761 33.6124 119.096 34.299 118.592 35.2279C118.088 36.1568 117.836 37.2876 117.836 38.6204C117.836 39.9734 118.078 41.1143 118.562 42.0432C119.065 42.9721 119.73 43.6688 120.557 44.1332C121.383 44.5775 122.29 44.7996 123.277 44.7996Z" fill="#FDF6EE"/>
<path d="M138.14 33.047C138.623 32.0979 139.308 31.3608 140.195 30.8358C141.102 30.3108 142.2 30.0482 143.49 30.0482V32.8955H142.765C139.681 32.8955 138.14 34.5716 138.14 37.9237V46.9502H135.389V30.3511H138.14V33.047Z" fill="#FDF6EE"/>
<path d="M145.638 38.5901C145.638 36.8939 145.981 35.4096 146.666 34.1374C147.351 32.8451 148.288 31.8455 149.477 31.1387C150.686 30.4319 152.026 30.0785 153.498 30.0785C154.949 30.0785 156.208 30.3915 157.276 31.0175C158.344 31.6435 159.14 32.4311 159.664 33.3802V30.3511H162.445V46.9502H159.664V43.8606C159.12 44.8299 158.304 45.6377 157.216 46.2839C156.148 46.9099 154.898 47.2229 153.467 47.2229C151.996 47.2229 150.666 46.8594 149.477 46.1324C148.288 45.4054 147.351 44.3857 146.666 43.0731C145.981 41.7605 145.638 40.2662 145.638 38.5901ZM159.664 38.6204C159.664 37.3684 159.412 36.278 158.909 35.3491C158.405 34.4201 157.72 33.7134 156.853 33.2287C156.007 32.7239 155.07 32.4715 154.042 32.4715C153.014 32.4715 152.077 32.7138 151.23 33.1984C150.384 33.6831 149.709 34.3899 149.205 35.3188C148.701 36.2477 148.449 37.3381 148.449 38.5901C148.449 39.8623 148.701 40.973 149.205 41.9221C149.709 42.851 150.384 43.5678 151.23 44.0727C152.077 44.5573 153.014 44.7996 154.042 44.7996C155.07 44.7996 156.007 44.5573 156.853 44.0727C157.72 43.5678 158.405 42.851 158.909 41.9221C159.412 40.973 159.664 39.8724 159.664 38.6204Z" fill="#FDF6EE"/>
<path d="M175.165 30.0482C177.181 30.0482 178.813 30.6641 180.063 31.896C181.312 33.1076 181.937 34.8644 181.937 37.1665V46.9502H179.216V37.5602C179.216 35.9044 178.803 34.6423 177.977 33.774C177.151 32.8854 176.022 32.4412 174.591 32.4412C173.14 32.4412 171.981 32.8955 171.115 33.8042C170.268 34.713 169.845 36.0356 169.845 37.7723V46.9502H167.094V30.3511H169.845V32.7138C170.389 31.8657 171.125 31.2094 172.052 30.7449C172.999 30.2805 174.037 30.0482 175.165 30.0482Z" fill="#FDF6EE"/>
<path d="M193.262 30.0785C194.693 30.0785 195.943 30.3915 197.011 31.0175C198.099 31.6435 198.905 32.4311 199.429 33.3802V30.3511H202.21V47.3137C202.21 48.8282 201.888 50.1711 201.243 51.3423C200.598 52.5338 199.671 53.4627 198.462 54.1291C197.273 54.7954 195.882 55.1286 194.29 55.1286C192.114 55.1286 190.3 54.6137 188.849 53.5838C187.398 52.554 186.541 51.1505 186.279 49.3735H189C189.302 50.3832 189.927 51.1909 190.874 51.7967C191.821 52.4227 192.96 52.7357 194.29 52.7357C195.802 52.7357 197.031 52.2611 197.978 51.3121C198.945 50.363 199.429 49.0302 199.429 47.3137V43.8303C198.885 44.7996 198.079 45.6074 197.011 46.2536C195.943 46.8998 194.693 47.2229 193.262 47.2229C191.791 47.2229 190.451 46.8594 189.242 46.1324C188.053 45.4054 187.116 44.3857 186.43 43.0731C185.745 41.7605 185.403 40.2662 185.403 38.5901C185.403 36.8939 185.745 35.4096 186.43 34.1374C187.116 32.8451 188.053 31.8455 189.242 31.1387C190.451 30.4319 191.791 30.0785 193.262 30.0785ZM199.429 38.6204C199.429 37.3684 199.177 36.278 198.673 35.3491C198.17 34.4201 197.484 33.7134 196.618 33.2287C195.771 32.7239 194.834 32.4715 193.806 32.4715C192.779 32.4715 191.842 32.7138 190.995 33.1984C190.149 33.6831 189.474 34.3899 188.97 35.3188C188.466 36.2477 188.214 37.3381 188.214 38.5901C188.214 39.8623 188.466 40.973 188.97 41.9221C189.474 42.851 190.149 43.5678 190.995 44.0727C191.842 44.5573 192.779 44.7996 193.806 44.7996C194.834 44.7996 195.771 44.5573 196.618 44.0727C197.484 43.5678 198.17 42.851 198.673 41.9221C199.177 40.973 199.429 39.8724 199.429 38.6204Z" fill="#FDF6EE"/>
<path d="M221.974 38.0146C221.974 38.5396 221.943 39.095 221.883 39.6806H208.642C208.743 41.3162 209.297 42.5985 210.305 43.5274C211.333 44.4361 212.572 44.8905 214.023 44.8905C215.212 44.8905 216.2 44.6179 216.986 44.0727C217.792 43.5072 218.356 42.7601 218.679 41.8312H221.641C221.198 43.4265 220.311 44.729 218.981 45.7386C217.651 46.7281 215.998 47.2229 214.023 47.2229C212.451 47.2229 211.041 46.8695 209.791 46.1627C208.562 45.4559 207.595 44.4563 206.889 43.164C206.184 41.8514 205.831 40.3369 205.831 38.6204C205.831 36.904 206.174 35.3995 206.859 34.1071C207.544 32.8148 208.501 31.8253 209.731 31.1387C210.98 30.4319 212.411 30.0785 214.023 30.0785C215.595 30.0785 216.986 30.4218 218.195 31.1084C219.404 31.795 220.331 32.7441 220.976 33.9557C221.641 35.1471 221.974 36.5001 221.974 38.0146ZM219.132 37.4391C219.132 36.389 218.9 35.4904 218.437 34.7432C217.973 33.9759 217.338 33.4004 216.532 33.0167C215.746 32.6128 214.87 32.4109 213.902 32.4109C212.512 32.4109 211.323 32.8551 210.335 33.7437C209.368 34.6322 208.814 35.864 208.673 37.4391H219.132Z" fill="#FDF6EE"/>
<path d="M226.028 25.8379H229.081L226.179 32.7138H224.244L226.028 25.8379Z" fill="#FDF6EE"/>
<path d="M238.082 47.2229C236.812 47.2229 235.674 47.0108 234.666 46.5868C233.658 46.1425 232.862 45.5367 232.278 44.7693C231.693 43.9818 231.371 43.0832 231.311 42.0735H234.152C234.233 42.9014 234.616 43.5779 235.301 44.103C236.006 44.628 236.923 44.8905 238.052 44.8905C239.1 44.8905 239.926 44.6583 240.531 44.1938C241.135 43.7294 241.437 43.1438 241.437 42.437C241.437 41.71 241.115 41.1749 240.47 40.8316C239.825 40.4681 238.828 40.1147 237.477 39.7714C236.248 39.4483 235.24 39.1252 234.454 38.8021C233.689 38.4589 233.024 37.9641 232.459 37.3179C231.915 36.6515 231.643 35.7832 231.643 34.713C231.643 33.8648 231.895 33.0874 232.399 32.3806C232.903 31.6738 233.618 31.1185 234.545 30.7146C235.472 30.2906 236.53 30.0785 237.719 30.0785C239.553 30.0785 241.034 30.543 242.163 31.4719C243.291 32.4008 243.896 33.673 243.977 35.2885H241.226C241.165 34.4201 240.813 33.7235 240.168 33.1984C239.543 32.6734 238.697 32.4109 237.628 32.4109C236.641 32.4109 235.855 32.6229 235.271 33.047C234.686 33.4711 234.394 34.0264 234.394 34.713C234.394 35.2582 234.565 35.7125 234.908 36.076C235.271 36.4193 235.714 36.702 236.238 36.9241C236.782 37.1261 237.528 37.3583 238.475 37.6208C239.664 37.9439 240.631 38.267 241.377 38.5901C242.123 38.893 242.757 39.3575 243.281 39.9835C243.826 40.6095 244.108 41.4273 244.128 42.437C244.128 43.3457 243.876 44.1635 243.372 44.8905C242.868 45.6175 242.153 46.193 241.226 46.6171C240.319 47.0209 239.271 47.2229 238.082 47.2229Z" fill="#FDF6EE"/>
<path d="M104.637 77.4526C103.246 77.4526 101.997 77.2103 100.888 76.7256C99.8001 76.2208 98.9436 75.5342 98.3189 74.6659C97.6942 73.7774 97.3717 72.7576 97.3516 71.6066H100.284C100.385 72.5961 100.788 73.4341 101.493 74.1207C102.219 74.7871 103.266 75.1202 104.637 75.1202C105.947 75.1202 106.975 74.7971 107.72 74.151C108.486 73.4846 108.869 72.6364 108.869 71.6066C108.869 70.7988 108.647 70.1425 108.204 69.6377C107.761 69.1329 107.206 68.7492 106.541 68.4867C105.876 68.2241 104.979 67.9414 103.851 67.6385C102.46 67.2751 101.342 66.9116 100.495 66.5481C99.6692 66.1846 98.9537 65.6192 98.3491 64.8518C97.7647 64.0643 97.4725 63.0142 97.4725 61.7016C97.4725 60.5506 97.7647 59.5308 98.3491 58.6423C98.9336 57.7538 99.7498 57.0672 100.798 56.5826C101.866 56.0979 103.085 55.8556 104.455 55.8556C106.43 55.8556 108.043 56.3503 109.292 57.3398C110.562 58.3293 111.277 59.6419 111.438 61.2776H108.416C108.315 60.4698 107.892 59.7631 107.146 59.1572C106.4 58.5312 105.413 58.2182 104.183 58.2182C103.035 58.2182 102.098 58.5211 101.372 59.127C100.647 59.7126 100.284 60.5405 100.284 61.6108C100.284 62.3781 100.495 63.0041 100.919 63.4888C101.362 63.9734 101.896 64.347 102.521 64.6095C103.166 64.8518 104.063 65.1345 105.211 65.4576C106.602 65.8413 107.72 66.225 108.567 66.6087C109.413 66.9721 110.139 67.5477 110.743 68.3352C111.348 69.1026 111.65 70.1526 111.65 71.4854C111.65 72.5153 111.378 73.4846 110.834 74.3933C110.29 75.302 109.484 76.0391 108.416 76.6045C107.347 77.1699 106.088 77.4526 104.637 77.4526Z" fill="#FDF6EE"/>
<path d="M117.119 57.9456C116.595 57.9456 116.152 57.7639 115.789 57.4004C115.426 57.0369 115.245 56.5927 115.245 56.0676C115.245 55.5426 115.426 55.0983 115.789 54.7349C116.152 54.3714 116.595 54.1896 117.119 54.1896C117.623 54.1896 118.046 54.3714 118.389 54.7349C118.751 55.0983 118.933 55.5426 118.933 56.0676C118.933 56.5927 118.751 57.0369 118.389 57.4004C118.046 57.7639 117.623 57.9456 117.119 57.9456ZM118.449 60.6415V77.2406H115.698V60.6415H118.449Z" fill="#FDF6EE"/>
<path d="M126.493 62.9132V72.697C126.493 73.5048 126.664 74.0803 127.007 74.4236C127.349 74.7467 127.944 74.9082 128.79 74.9082H130.816V77.2406H128.337C126.805 77.2406 125.657 76.8872 124.891 76.1804C124.125 75.4736 123.742 74.3125 123.742 72.697V62.9132H121.596V60.6415H123.742V56.4614H126.493V60.6415H130.816V62.9132H126.493Z" fill="#FDF6EE"/>
<path d="M149.264 68.3049C149.264 68.83 149.233 69.3853 149.173 69.9709H135.932C136.033 71.6066 136.587 72.8889 137.595 73.8178C138.623 74.7265 139.862 75.1808 141.313 75.1808C142.502 75.1808 143.49 74.9082 144.276 74.363C145.082 73.7976 145.646 73.0504 145.969 72.1215H148.931C148.488 73.7168 147.601 75.0193 146.271 76.029C144.941 77.0184 143.288 77.5132 141.313 77.5132C139.741 77.5132 138.331 77.1598 137.081 76.453C135.852 75.7462 134.884 74.7467 134.179 73.4543C133.474 72.1417 133.121 70.6272 133.121 68.9107C133.121 67.1943 133.464 65.6899 134.149 64.3975C134.834 63.1051 135.791 62.1156 137.021 61.429C138.27 60.7222 139.701 60.3689 141.313 60.3689C142.885 60.3689 144.276 60.7121 145.485 61.3987C146.694 62.0853 147.621 63.0344 148.266 64.246C148.931 65.4374 149.264 66.7904 149.264 68.3049ZM146.422 67.7294C146.422 66.6793 146.19 65.7807 145.727 65.0336C145.263 64.2662 144.628 63.6907 143.822 63.307C143.036 62.9031 142.16 62.7012 141.192 62.7012C139.802 62.7012 138.613 63.1455 137.625 64.034C136.658 64.9225 136.104 66.1543 135.963 67.7294H146.422Z" fill="#FDF6EE"/>
</svg>
