<svg width="256" height="256" viewBox="0 0 256 256" fill="none" xmlns="http://www.w3.org/2000/svg">
<g clip-path="url(#clip0_1619_427)">
<rect width="256" height="256" fill="#1388B9"/>
<rect width="256" height="256" fill="#1388B9"/>
<path d="M147.401 56.3697C137.706 69.6498 131.757 79.6527 123.608 95.2392C122.692 96.991 120.462 97.4965 118.803 96.4358C117.841 95.8208 117.307 94.7145 117.511 93.5849C118.54 87.9018 121.984 70.5297 127.368 59.8954C129.449 55.7847 132.76 50.8253 135.42 47.0618C137.744 43.7736 142.23 43.0479 145.552 45.3037C149.187 47.7723 149.999 52.8113 147.401 56.3697Z" fill="#FDF6EE"/>
<path d="M177.083 88.8865C185.498 88.8865 190.074 98.7961 184.656 105.283L148.342 148.758C147.898 149.289 147.899 150.067 148.346 150.597L184.524 193.574C189.979 200.054 185.408 210 176.976 210H150.345C147.437 210 144.677 208.712 142.796 206.478L129.719 190.943C128.867 189.931 127.227 190.538 127.227 191.865V200.026C127.227 205.534 122.763 210.086 117.369 209.189C88.8688 204.45 67.1309 179.505 67.1309 149.443C67.1309 119.382 88.8688 94.4362 117.369 89.6972C122.763 88.8004 127.227 93.3521 127.227 98.8606V107.659C127.227 108.988 128.873 109.593 129.722 108.576L143.203 92.4378C145.083 90.1863 147.855 88.8865 150.775 88.8865H177.083Z" fill="#FDF6EE"/>
<path d="M102.783 51.3961C93.5059 46.2845 77.6627 45.7719 69.8252 45.865C67.6 45.8914 66.2859 48.2105 67.4095 50.1461C70.9881 56.3106 78.4585 67.7059 87.1907 72.5171C96.4681 77.6287 112.311 78.1413 120.149 78.0482C122.374 78.0217 123.688 75.7027 122.565 73.7671C118.986 67.6026 111.515 56.2073 102.783 51.3961Z" fill="#FDF6EE"/>
</g>
<defs>
<clipPath id="clip0_1619_427">
<rect width="256" height="256" fill="white"/>
</clipPath>
</defs>
</svg>
