<svg width="75" height="106" viewBox="0 0 75 106" fill="none" xmlns="http://www.w3.org/2000/svg">
<path fill-rule="evenodd" clip-rule="evenodd" d="M65.797 2.7584C71.1146 3.04361 75.1942 7.58561 74.909 12.9032L70.4394 96.2411C70.1542 101.559 65.6121 105.638 60.2945 105.353L9.12613 102.609C3.8085 102.324 -0.271113 97.7816 0.0140874 92.4639L4.48374 9.12613C4.76894 3.8085 9.31096 -0.271101 14.6286 0.0140862L65.797 2.7584ZM28.3815 44.0318C26.786 43.9496 25.4259 45.1762 25.3437 46.7717L24.124 70.4625C24.0419 72.0579 25.2685 73.4178 26.8639 73.5L51.1217 74.7498C52.7172 74.832 54.0771 73.6051 54.1593 72.0096L55.3793 48.3188C55.4613 46.7234 54.2344 45.3634 52.639 45.2812L28.3815 44.0318ZM29.0576 31.4849C27.4622 31.4027 26.1019 32.6363 26.0197 34.2317C25.9375 35.8271 27.1638 37.1939 28.7592 37.2761L53.066 38.5285C54.6614 38.6106 56.0217 37.3765 56.1039 35.7811C56.186 34.1857 54.9597 32.8186 53.3643 32.7363L29.0576 31.4849Z" fill="white"/>
<path d="M9.06175 102.604C3.77566 102.286 -0.26996 97.7601 0.0140874 92.4639L4.48374 9.12613C4.76779 3.83001 9.27431 -0.237607 14.5641 0.0113091L9.06175 102.604Z" fill="#FFE2A9"/>
</svg>
