<svg width="320" height="319" viewBox="0 0 320 319" fill="none" xmlns="http://www.w3.org/2000/svg">
<path d="M305.121 229.52C275.74 161.665 251.488 124.931 178.121 64.5195C195.998 132.766 197.101 165.157 178.121 209.503C237.149 195.668 264.419 201.191 305.121 229.52Z" fill="#FDF6EE" stroke="#1388B9" stroke-width="16" stroke-linejoin="round"/>
<path d="M156.457 35.3906C158.466 32.5406 162.09 31.3202 165.414 32.374C168.738 33.4279 170.996 36.5132 170.996 40V209.006C170.996 211.632 169.707 214.091 167.548 215.585C165.388 217.079 162.633 217.418 160.176 216.492C131.092 205.536 102.41 210.476 36.332 230.651C33.0626 231.65 29.5201 230.46 27.5156 227.69C25.5114 224.921 25.4876 221.185 27.457 218.391L156.457 35.3906Z" fill="#FDF6EE" stroke="#1388B9" stroke-width="16" stroke-linejoin="round"/>
<path d="M175.465 8L175.877 8.01074C180.104 8.22523 183.465 11.7199 183.465 16V16.5801L221.057 21.6094C224.36 22.0513 227.044 24.4961 227.792 27.7441C228.54 30.9921 227.195 34.3636 224.418 36.2061L204.824 49.2031C202.993 50.4175 200.744 50.826 198.604 50.332L198.611 50.334C198.607 50.333 198.594 50.3296 198.574 50.3252C198.533 50.3162 198.461 50.3003 198.36 50.2793C198.158 50.237 197.843 50.1742 197.438 50.1006C196.624 49.9523 195.476 49.7683 194.17 49.627C191.335 49.3201 188.634 49.3199 186.924 49.752C186.068 49.9681 184.823 50.4707 183.465 51.1172V244C183.465 248.418 179.883 252 175.465 252H162.996C158.578 252 154.996 248.418 154.996 244V16C154.996 11.5817 158.578 8 162.996 8H175.465Z" fill="#FDF6EE" stroke="#1388B9" stroke-width="16" stroke-linejoin="round"/>
<path d="M319.995 242.159L5.31347 242.797C18.6453 269.023 28.543 279.012 49.5493 290.959C70.5556 302.907 70.3151 284.055 84.0605 284.521C98.808 285.021 105.483 294.362 120.24 294.505C136.525 294.662 143.77 282.986 160.055 283.155C176.577 283.327 183.568 295.516 200.09 295.679C216.678 295.841 223.966 283.659 240.553 283.849C253.604 283.999 244.11 297.973 272.815 291.83C301.52 285.687 311.986 274.523 319.995 242.159Z" fill="#1388B9"/>
</svg>
