<svg width="48" height="65" viewBox="0 0 48 65" fill="none" xmlns="http://www.w3.org/2000/svg">
<path d="M32.1605 4.84357C28.2825 10.0436 25.9026 13.9604 22.6431 20.0636C22.2768 20.7495 21.3849 20.9474 20.7212 20.5321C20.3364 20.2913 20.1228 19.8581 20.2046 19.4158C20.6161 17.1905 21.9935 10.3881 24.1472 6.22412C24.9797 4.61449 26.304 2.67258 27.368 1.19891C28.2976 -0.0886379 30.0919 -0.37283 31.4208 0.51049C32.875 1.47711 33.1996 3.45021 32.1605 4.84357Z" fill="#FDF6EE"/>
<path d="M44.0332 17.576C47.3991 17.576 49.2297 21.4563 47.0622 23.9965L32.5369 41.0195C32.3591 41.2278 32.3597 41.5321 32.5382 41.7397L47.0097 58.5681C49.1916 61.1055 47.3633 65 43.9903 65H33.3379C32.175 65 31.0708 64.4957 30.3185 63.6209L25.0876 57.5379C24.747 57.1418 24.0906 57.3794 24.0906 57.8988V61.0945C24.0906 63.2514 22.3051 65.0337 20.1476 64.6826C8.74751 62.8269 0.052344 53.0591 0.052344 41.288C0.052344 29.5169 8.74751 19.7491 20.1476 17.8935C22.3051 17.5423 24.0906 19.3246 24.0906 21.4815V24.9265C24.0906 25.447 24.7492 25.684 25.089 25.2858L30.481 18.9666C31.2333 18.085 32.3419 17.5761 33.5101 17.576H44.0332Z" fill="#FDF6EE"/>
<path d="M14.3133 2.89605C10.6024 0.894529 4.26509 0.693804 1.13008 0.730271C0.239991 0.740625 -0.285656 1.64867 0.163804 2.40659C1.59525 4.82041 4.58342 9.28242 8.07629 11.1663C11.7872 13.1678 18.1245 13.3686 21.2595 13.3321C22.1496 13.3218 22.6753 12.4137 22.2258 11.6558C20.7944 9.24197 17.8062 4.77996 14.3133 2.89605Z" fill="#FDF6EE"/>
</svg>
