<svg width="1500" height="27" viewBox="0 0 1500 27" fill="none" xmlns="http://www.w3.org/2000/svg">
<path d="M75 16.5904C58.3333 30.4699 41.6667 30.4699 25 16.5904C16.6667 9.6506 8.33333 6.18072 0 6.18072V0H1500V6.18072C1491.67 6.18072 1483.33 9.6506 1475 16.5904C1458.33 30.4699 1441.67 30.4699 1425 16.5904C1408.33 2.71084 1391.67 2.71084 1375 16.5904C1358.33 30.4699 1341.67 30.4699 1325 16.5904C1308.33 2.71084 1291.67 2.71084 1275 16.5904C1258.33 30.4699 1241.67 30.4699 1225 16.5904C1208.33 2.71084 1191.67 2.71084 1175 16.5904C1158.33 30.4699 1141.67 30.4699 1125 16.5904C1108.33 2.71084 1091.67 2.71084 1075 16.5904C1058.33 30.4699 1041.67 30.4699 1025 16.5904C1008.33 2.71084 991.667 2.71084 975 16.5904C958.333 30.4699 941.667 30.4699 925 16.5904C908.333 2.71084 891.667 2.71084 875 16.5904C858.333 30.4699 841.667 30.4699 825 16.5904C808.333 2.71084 791.667 2.71084 775 16.5904C758.333 30.4699 741.667 30.4699 725 16.5904C708.333 2.71084 691.667 2.71084 675 16.5904C658.333 30.4699 641.667 30.4699 625 16.5904C608.333 2.71084 591.667 2.71084 575 16.5904C558.333 30.4699 541.667 30.4699 525 16.5904C508.333 2.71084 491.667 2.71084 475 16.5904C458.333 30.4699 441.667 30.4699 425 16.5904C408.333 2.71084 391.667 2.71084 375 16.5904C358.333 30.4699 341.667 30.4699 325 16.5904C308.333 2.71084 291.667 2.71084 275 16.5904C258.333 30.4699 241.667 30.4699 225 16.5904C208.333 2.71084 191.667 2.71084 175 16.5904C158.333 30.4699 141.667 30.4699 125 16.5904C108.333 2.71084 91.6667 2.71084 75 16.5904Z" fill="#1388B9"/>
</svg>
